%TF.GenerationSoftware,KiCad,Pcbnew,(5.1.6)-1*%
%TF.CreationDate,2021-02-08T13:30:39-05:00*%
%TF.ProjectId,MKME Pico Breakout,4d4b4d45-2050-4696-936f-20427265616b,rev?*%
%TF.SameCoordinates,Original*%
%TF.FileFunction,Soldermask,Top*%
%TF.FilePolarity,Negative*%
%FSLAX46Y46*%
G04 Gerber Fmt 4.6, Leading zero omitted, Abs format (unit mm)*
G04 Created by KiCad (PCBNEW (5.1.6)-1) date 2021-02-08 13:30:39*
%MOMM*%
%LPD*%
G01*
G04 APERTURE LIST*
%ADD10C,2.000000*%
%ADD11R,2.500000X2.500000*%
%ADD12C,2.500000*%
%ADD13R,1.700000X1.700000*%
%ADD14O,1.700000X1.700000*%
%ADD15R,3.500000X1.700000*%
%ADD16O,1.800000X1.800000*%
%ADD17O,1.500000X1.500000*%
%ADD18R,1.700000X3.500000*%
G04 APERTURE END LIST*
D10*
%TO.C, *%
X228092000Y-56896000D03*
%TD*%
%TO.C, *%
X225552000Y-56896000D03*
%TD*%
%TO.C, *%
X223012000Y-56896000D03*
%TD*%
%TO.C, *%
X220472000Y-56896000D03*
%TD*%
%TO.C, *%
X217932000Y-56896000D03*
%TD*%
%TO.C, *%
X215392000Y-56896000D03*
%TD*%
%TO.C, *%
X212852000Y-56896000D03*
%TD*%
%TO.C, *%
X210312000Y-56896000D03*
%TD*%
%TO.C, *%
X207772000Y-56896000D03*
%TD*%
%TO.C, *%
X205232000Y-56896000D03*
%TD*%
%TO.C, *%
X228092000Y-54356000D03*
%TD*%
%TO.C, *%
X225552000Y-54356000D03*
%TD*%
%TO.C, *%
X223012000Y-54356000D03*
%TD*%
%TO.C, *%
X220472000Y-54356000D03*
%TD*%
%TO.C, *%
X217932000Y-54356000D03*
%TD*%
%TO.C, *%
X215392000Y-54356000D03*
%TD*%
%TO.C, *%
X212852000Y-54356000D03*
%TD*%
%TO.C, *%
X210312000Y-54356000D03*
%TD*%
%TO.C, *%
X207772000Y-54356000D03*
%TD*%
%TO.C, *%
X205232000Y-54356000D03*
%TD*%
%TO.C, *%
X228092000Y-51816000D03*
%TD*%
%TO.C, *%
X225552000Y-51816000D03*
%TD*%
%TO.C, *%
X223012000Y-51816000D03*
%TD*%
%TO.C, *%
X220472000Y-51816000D03*
%TD*%
%TO.C, *%
X217932000Y-51816000D03*
%TD*%
%TO.C, *%
X215392000Y-51816000D03*
%TD*%
%TO.C, *%
X212852000Y-51816000D03*
%TD*%
%TO.C, *%
X210312000Y-51816000D03*
%TD*%
%TO.C, *%
X207772000Y-51816000D03*
%TD*%
%TO.C, *%
X205232000Y-51816000D03*
%TD*%
%TO.C, *%
X228092000Y-49276000D03*
%TD*%
%TO.C, *%
X225552000Y-49276000D03*
%TD*%
%TO.C, *%
X223012000Y-49276000D03*
%TD*%
%TO.C, *%
X220472000Y-49276000D03*
%TD*%
%TO.C, *%
X217932000Y-49276000D03*
%TD*%
%TO.C, *%
X215392000Y-49276000D03*
%TD*%
%TO.C, *%
X212852000Y-49276000D03*
%TD*%
%TO.C, *%
X210312000Y-49276000D03*
%TD*%
%TO.C, *%
X207772000Y-49276000D03*
%TD*%
%TO.C, *%
X205232000Y-49276000D03*
%TD*%
%TO.C, *%
X228092000Y-46736000D03*
%TD*%
%TO.C, *%
X225552000Y-46736000D03*
%TD*%
%TO.C, *%
X223012000Y-46736000D03*
%TD*%
%TO.C, *%
X220472000Y-46736000D03*
%TD*%
%TO.C, *%
X217932000Y-46736000D03*
%TD*%
%TO.C, *%
X215392000Y-46736000D03*
%TD*%
%TO.C, *%
X212852000Y-46736000D03*
%TD*%
%TO.C, *%
X210312000Y-46736000D03*
%TD*%
%TO.C, *%
X207772000Y-46736000D03*
%TD*%
%TO.C, *%
X205232000Y-46736000D03*
%TD*%
%TO.C, *%
X240792000Y-92710000D03*
%TD*%
%TO.C, *%
X238252000Y-92710000D03*
%TD*%
%TO.C, *%
X235712000Y-92710000D03*
%TD*%
%TO.C, *%
X233172000Y-92710000D03*
%TD*%
%TO.C, *%
X230632000Y-92710000D03*
%TD*%
%TO.C, *%
X228092000Y-92710000D03*
%TD*%
%TO.C, *%
X225552000Y-92710000D03*
%TD*%
%TO.C, *%
X223012000Y-92710000D03*
%TD*%
%TO.C, *%
X220472000Y-92710000D03*
%TD*%
%TO.C, *%
X217932000Y-92710000D03*
%TD*%
%TO.C, *%
X215392000Y-92710000D03*
%TD*%
%TO.C, *%
X212852000Y-92710000D03*
%TD*%
%TO.C, *%
X210312000Y-92710000D03*
%TD*%
%TO.C, *%
X207772000Y-92710000D03*
%TD*%
%TO.C, *%
X205232000Y-92710000D03*
%TD*%
%TO.C, *%
X240792000Y-90170000D03*
%TD*%
%TO.C, *%
X238252000Y-90170000D03*
%TD*%
%TO.C, *%
X235712000Y-90170000D03*
%TD*%
%TO.C, *%
X233172000Y-90170000D03*
%TD*%
%TO.C, *%
X230632000Y-90170000D03*
%TD*%
%TO.C, *%
X228092000Y-90170000D03*
%TD*%
%TO.C, *%
X225552000Y-90170000D03*
%TD*%
%TO.C, *%
X223012000Y-90170000D03*
%TD*%
%TO.C, *%
X220472000Y-90170000D03*
%TD*%
%TO.C, *%
X217932000Y-90170000D03*
%TD*%
%TO.C, *%
X215392000Y-90170000D03*
%TD*%
%TO.C, *%
X212852000Y-90170000D03*
%TD*%
%TO.C, *%
X210312000Y-90170000D03*
%TD*%
%TO.C, *%
X207772000Y-90170000D03*
%TD*%
%TO.C, *%
X205232000Y-90170000D03*
%TD*%
%TO.C, *%
X240792000Y-87630000D03*
%TD*%
%TO.C, *%
X238252000Y-87630000D03*
%TD*%
%TO.C, *%
X235712000Y-87630000D03*
%TD*%
%TO.C, *%
X233172000Y-87630000D03*
%TD*%
%TO.C, *%
X230632000Y-87630000D03*
%TD*%
%TO.C, *%
X228092000Y-87630000D03*
%TD*%
%TO.C, *%
X225552000Y-87630000D03*
%TD*%
%TO.C, *%
X223012000Y-87630000D03*
%TD*%
%TO.C, *%
X220472000Y-87630000D03*
%TD*%
%TO.C, *%
X217932000Y-87630000D03*
%TD*%
%TO.C, *%
X215392000Y-87630000D03*
%TD*%
%TO.C, *%
X212852000Y-87630000D03*
%TD*%
%TO.C, *%
X210312000Y-87630000D03*
%TD*%
%TO.C, *%
X207772000Y-87630000D03*
%TD*%
%TO.C, *%
X205232000Y-87630000D03*
%TD*%
%TO.C, *%
X240792000Y-85090000D03*
%TD*%
%TO.C, *%
X238252000Y-85090000D03*
%TD*%
%TO.C, *%
X235712000Y-85090000D03*
%TD*%
%TO.C, *%
X233172000Y-85090000D03*
%TD*%
%TO.C, *%
X230632000Y-85090000D03*
%TD*%
%TO.C, *%
X228092000Y-85090000D03*
%TD*%
%TO.C, *%
X225552000Y-85090000D03*
%TD*%
%TO.C, *%
X223012000Y-85090000D03*
%TD*%
%TO.C, *%
X220472000Y-85090000D03*
%TD*%
%TO.C, *%
X217932000Y-85090000D03*
%TD*%
%TO.C, *%
X215392000Y-85090000D03*
%TD*%
%TO.C, *%
X212852000Y-85090000D03*
%TD*%
%TO.C, *%
X210312000Y-85090000D03*
%TD*%
%TO.C, *%
X207772000Y-85090000D03*
%TD*%
%TO.C, *%
X205232000Y-85090000D03*
%TD*%
%TO.C, *%
X240792000Y-82550000D03*
%TD*%
%TO.C, *%
X238252000Y-82550000D03*
%TD*%
%TO.C, *%
X235712000Y-82550000D03*
%TD*%
%TO.C, *%
X233172000Y-82550000D03*
%TD*%
%TO.C, *%
X230632000Y-82550000D03*
%TD*%
%TO.C, *%
X228092000Y-82550000D03*
%TD*%
%TO.C, *%
X225552000Y-82550000D03*
%TD*%
%TO.C, *%
X223012000Y-82550000D03*
%TD*%
%TO.C, *%
X220472000Y-82550000D03*
%TD*%
%TO.C, *%
X217932000Y-82550000D03*
%TD*%
%TO.C, *%
X215392000Y-82550000D03*
%TD*%
%TO.C, *%
X212852000Y-82550000D03*
%TD*%
%TO.C, *%
X210312000Y-82550000D03*
%TD*%
%TO.C, *%
X207772000Y-82550000D03*
%TD*%
%TO.C, *%
X205232000Y-82550000D03*
%TD*%
%TO.C, *%
X240792000Y-80010000D03*
%TD*%
%TO.C, *%
X238252000Y-80010000D03*
%TD*%
%TO.C, *%
X235712000Y-80010000D03*
%TD*%
%TO.C, *%
X233172000Y-80010000D03*
%TD*%
%TO.C, *%
X230632000Y-80010000D03*
%TD*%
%TO.C, *%
X228092000Y-80010000D03*
%TD*%
%TO.C, *%
X225552000Y-80010000D03*
%TD*%
%TO.C, *%
X223012000Y-80010000D03*
%TD*%
%TO.C, *%
X220472000Y-80010000D03*
%TD*%
%TO.C, *%
X217932000Y-80010000D03*
%TD*%
%TO.C, *%
X215392000Y-80010000D03*
%TD*%
%TO.C, *%
X212852000Y-80010000D03*
%TD*%
%TO.C, *%
X210312000Y-80010000D03*
%TD*%
%TO.C, *%
X207772000Y-80010000D03*
%TD*%
%TO.C, *%
X205232000Y-80010000D03*
%TD*%
%TO.C, *%
X240792000Y-77470000D03*
%TD*%
%TO.C, *%
X238252000Y-77470000D03*
%TD*%
%TO.C, *%
X235712000Y-77470000D03*
%TD*%
%TO.C, *%
X233172000Y-77470000D03*
%TD*%
%TO.C, *%
X230632000Y-77470000D03*
%TD*%
%TO.C, *%
X228092000Y-77470000D03*
%TD*%
%TO.C, *%
X225552000Y-77470000D03*
%TD*%
%TO.C, *%
X223012000Y-77470000D03*
%TD*%
%TO.C, *%
X220472000Y-77470000D03*
%TD*%
%TO.C, *%
X217932000Y-77470000D03*
%TD*%
%TO.C, *%
X215392000Y-77470000D03*
%TD*%
%TO.C, *%
X212852000Y-77470000D03*
%TD*%
%TO.C, *%
X210312000Y-77470000D03*
%TD*%
%TO.C, *%
X207772000Y-77470000D03*
%TD*%
%TO.C, *%
X205232000Y-77470000D03*
%TD*%
%TO.C, *%
X240792000Y-74930000D03*
%TD*%
%TO.C, *%
X238252000Y-74930000D03*
%TD*%
%TO.C, *%
X235712000Y-74930000D03*
%TD*%
%TO.C, *%
X233172000Y-74930000D03*
%TD*%
%TO.C, *%
X230632000Y-74930000D03*
%TD*%
%TO.C, *%
X228092000Y-74930000D03*
%TD*%
%TO.C, *%
X225552000Y-74930000D03*
%TD*%
%TO.C, *%
X223012000Y-74930000D03*
%TD*%
%TO.C, *%
X220472000Y-74930000D03*
%TD*%
%TO.C, *%
X217932000Y-74930000D03*
%TD*%
%TO.C, *%
X215392000Y-74930000D03*
%TD*%
%TO.C, *%
X212852000Y-74930000D03*
%TD*%
%TO.C, *%
X210312000Y-74930000D03*
%TD*%
%TO.C, *%
X207772000Y-74930000D03*
%TD*%
%TO.C, *%
X205232000Y-74930000D03*
%TD*%
%TO.C, *%
X240792000Y-72390000D03*
%TD*%
%TO.C, *%
X238252000Y-72390000D03*
%TD*%
%TO.C, *%
X235712000Y-72390000D03*
%TD*%
%TO.C, *%
X233172000Y-72390000D03*
%TD*%
%TO.C, *%
X230632000Y-72390000D03*
%TD*%
%TO.C, *%
X228092000Y-72390000D03*
%TD*%
%TO.C, *%
X225552000Y-72390000D03*
%TD*%
%TO.C, *%
X223012000Y-72390000D03*
%TD*%
%TO.C, *%
X220472000Y-72390000D03*
%TD*%
%TO.C, *%
X217932000Y-72390000D03*
%TD*%
%TO.C, *%
X215392000Y-72390000D03*
%TD*%
%TO.C, *%
X212852000Y-72390000D03*
%TD*%
%TO.C, *%
X210312000Y-72390000D03*
%TD*%
%TO.C, *%
X207772000Y-72390000D03*
%TD*%
%TO.C, *%
X205232000Y-72390000D03*
%TD*%
%TO.C, *%
X240792000Y-69850000D03*
%TD*%
%TO.C, *%
X238252000Y-69850000D03*
%TD*%
%TO.C, *%
X235712000Y-69850000D03*
%TD*%
%TO.C, *%
X233172000Y-69850000D03*
%TD*%
%TO.C, *%
X230632000Y-69850000D03*
%TD*%
%TO.C, *%
X228092000Y-69850000D03*
%TD*%
%TO.C, *%
X225552000Y-69850000D03*
%TD*%
%TO.C, *%
X223012000Y-69850000D03*
%TD*%
%TO.C, *%
X220472000Y-69850000D03*
%TD*%
%TO.C, *%
X217932000Y-69850000D03*
%TD*%
%TO.C, *%
X215392000Y-69850000D03*
%TD*%
%TO.C, *%
X212852000Y-69850000D03*
%TD*%
%TO.C, *%
X210312000Y-69850000D03*
%TD*%
%TO.C, *%
X207772000Y-69850000D03*
%TD*%
%TO.C, *%
X205232000Y-69850000D03*
%TD*%
%TO.C, *%
X240792000Y-67310000D03*
%TD*%
%TO.C, *%
X238252000Y-67310000D03*
%TD*%
%TO.C, *%
X235712000Y-67310000D03*
%TD*%
%TO.C, *%
X233172000Y-67310000D03*
%TD*%
%TO.C, *%
X230632000Y-67310000D03*
%TD*%
%TO.C, *%
X228092000Y-67310000D03*
%TD*%
%TO.C, *%
X225552000Y-67310000D03*
%TD*%
%TO.C, *%
X223012000Y-67310000D03*
%TD*%
%TO.C, *%
X220472000Y-67310000D03*
%TD*%
%TO.C, *%
X217932000Y-67310000D03*
%TD*%
%TO.C, *%
X215392000Y-67310000D03*
%TD*%
%TO.C, *%
X212852000Y-67310000D03*
%TD*%
%TO.C, *%
X210312000Y-67310000D03*
%TD*%
%TO.C, *%
X207772000Y-67310000D03*
%TD*%
%TO.C, *%
X205232000Y-67310000D03*
%TD*%
%TO.C, *%
X240792000Y-64770000D03*
%TD*%
%TO.C, *%
X238252000Y-64770000D03*
%TD*%
%TO.C, *%
X235712000Y-64770000D03*
%TD*%
%TO.C, *%
X233172000Y-64770000D03*
%TD*%
%TO.C, *%
X230632000Y-64770000D03*
%TD*%
%TO.C, *%
X228092000Y-64770000D03*
%TD*%
%TO.C, *%
X225552000Y-64770000D03*
%TD*%
%TO.C, *%
X223012000Y-64770000D03*
%TD*%
%TO.C, *%
X220472000Y-64770000D03*
%TD*%
%TO.C, *%
X217932000Y-64770000D03*
%TD*%
%TO.C, *%
X215392000Y-64770000D03*
%TD*%
%TO.C, *%
X212852000Y-64770000D03*
%TD*%
%TO.C, *%
X210312000Y-64770000D03*
%TD*%
%TO.C, *%
X207772000Y-64770000D03*
%TD*%
%TO.C, *%
X205232000Y-64770000D03*
%TD*%
%TO.C, *%
X240792000Y-62230000D03*
%TD*%
%TO.C, *%
X238252000Y-62230000D03*
%TD*%
%TO.C, *%
X235712000Y-62230000D03*
%TD*%
%TO.C, *%
X233172000Y-62230000D03*
%TD*%
%TO.C, *%
X230632000Y-62230000D03*
%TD*%
%TO.C, *%
X228092000Y-62230000D03*
%TD*%
%TO.C, *%
X225552000Y-62230000D03*
%TD*%
%TO.C, *%
X223012000Y-62230000D03*
%TD*%
%TO.C, *%
X220472000Y-62230000D03*
%TD*%
%TO.C, *%
X217932000Y-62230000D03*
%TD*%
%TO.C, *%
X215392000Y-62230000D03*
%TD*%
%TO.C, *%
X212852000Y-62230000D03*
%TD*%
%TO.C, *%
X210312000Y-62230000D03*
%TD*%
%TO.C, *%
X207772000Y-62230000D03*
%TD*%
%TO.C, *%
X205232000Y-62230000D03*
%TD*%
%TO.C, *%
X240792000Y-59690000D03*
%TD*%
%TO.C, *%
X238252000Y-59690000D03*
%TD*%
%TO.C, *%
X235712000Y-59690000D03*
%TD*%
%TO.C, *%
X233172000Y-59690000D03*
%TD*%
%TO.C, *%
X230632000Y-59690000D03*
%TD*%
%TO.C, *%
X228092000Y-59690000D03*
%TD*%
%TO.C, *%
X225552000Y-59690000D03*
%TD*%
%TO.C, *%
X223012000Y-59690000D03*
%TD*%
%TO.C, *%
X220472000Y-59690000D03*
%TD*%
%TO.C, *%
X217932000Y-59690000D03*
%TD*%
%TO.C, *%
X215392000Y-59690000D03*
%TD*%
%TO.C, *%
X212852000Y-59690000D03*
%TD*%
%TO.C, *%
X210312000Y-59690000D03*
%TD*%
%TO.C, *%
X207772000Y-59690000D03*
%TD*%
%TO.C, *%
X205232000Y-59690000D03*
%TD*%
D11*
%TO.C,J1*%
X250444000Y-48260000D03*
D12*
X250444000Y-53340000D03*
X250444000Y-58420000D03*
X250444000Y-63500000D03*
X250444000Y-68580000D03*
X250444000Y-73660000D03*
X250444000Y-78740000D03*
X250444000Y-83820000D03*
X250444000Y-88900000D03*
X250444000Y-93980000D03*
%TD*%
D13*
%TO.C,J2*%
X240030000Y-120142000D03*
D14*
X240030000Y-117602000D03*
X240030000Y-115062000D03*
X240030000Y-112522000D03*
X240030000Y-109982000D03*
X240030000Y-107442000D03*
X240030000Y-104902000D03*
X240030000Y-102362000D03*
X240030000Y-99822000D03*
X240030000Y-97282000D03*
%TD*%
D11*
%TO.C,J3*%
X235712000Y-51054000D03*
D12*
X240792000Y-51054000D03*
%TD*%
%TO.C,J4*%
X250444000Y-147574000D03*
X250444000Y-142494000D03*
X250444000Y-137414000D03*
X250444000Y-132334000D03*
X250444000Y-127254000D03*
X250444000Y-122174000D03*
X250444000Y-117094000D03*
X250444000Y-112014000D03*
X250444000Y-106934000D03*
D11*
X250444000Y-101854000D03*
%TD*%
D14*
%TO.C,J5*%
X239776000Y-125730000D03*
X239776000Y-128270000D03*
X239776000Y-130810000D03*
X239776000Y-133350000D03*
X239776000Y-135890000D03*
X239776000Y-138430000D03*
X239776000Y-140970000D03*
X239776000Y-143510000D03*
X239776000Y-146050000D03*
D13*
X239776000Y-148590000D03*
%TD*%
%TO.C,J6*%
X205232000Y-120142000D03*
D14*
X205232000Y-117602000D03*
X205232000Y-115062000D03*
X205232000Y-112522000D03*
X205232000Y-109982000D03*
X205232000Y-107442000D03*
X205232000Y-104902000D03*
X205232000Y-102362000D03*
X205232000Y-99822000D03*
X205232000Y-97282000D03*
%TD*%
%TO.C,J7*%
X205232000Y-125730000D03*
X205232000Y-128270000D03*
X205232000Y-130810000D03*
X205232000Y-133350000D03*
X205232000Y-135890000D03*
X205232000Y-138430000D03*
X205232000Y-140970000D03*
X205232000Y-143510000D03*
X205232000Y-146050000D03*
D13*
X205232000Y-148590000D03*
%TD*%
D11*
%TO.C,J8*%
X195326000Y-93726000D03*
D12*
X195326000Y-88646000D03*
X195326000Y-83566000D03*
X195326000Y-78486000D03*
X195326000Y-73406000D03*
X195326000Y-68326000D03*
X195326000Y-63246000D03*
X195326000Y-58166000D03*
X195326000Y-53086000D03*
X195326000Y-48006000D03*
%TD*%
D11*
%TO.C,J9*%
X195326000Y-147574000D03*
D12*
X195326000Y-142494000D03*
X195326000Y-137414000D03*
X195326000Y-132334000D03*
X195326000Y-127254000D03*
X195326000Y-122174000D03*
X195326000Y-117094000D03*
X195326000Y-112014000D03*
X195326000Y-106934000D03*
X195326000Y-101854000D03*
%TD*%
D14*
%TO.C,U1*%
X231648000Y-148590000D03*
X231648000Y-146050000D03*
D13*
X231648000Y-143510000D03*
D14*
X231648000Y-140970000D03*
X231648000Y-138430000D03*
X231648000Y-135890000D03*
X231648000Y-133350000D03*
D13*
X231648000Y-130810000D03*
D14*
X231648000Y-128270000D03*
X231648000Y-125730000D03*
X231648000Y-123190000D03*
X231648000Y-120650000D03*
D13*
X231648000Y-118110000D03*
D14*
X231648000Y-115570000D03*
X231648000Y-113030000D03*
X231648000Y-110490000D03*
X231648000Y-107950000D03*
D13*
X231648000Y-105410000D03*
D14*
X231648000Y-102870000D03*
X231648000Y-100330000D03*
X213868000Y-100330000D03*
X213868000Y-102870000D03*
D13*
X213868000Y-105410000D03*
D14*
X213868000Y-107950000D03*
X213868000Y-110490000D03*
X213868000Y-113030000D03*
X213868000Y-115570000D03*
D13*
X213868000Y-118110000D03*
D14*
X213868000Y-120650000D03*
X213868000Y-123190000D03*
X213868000Y-125730000D03*
X213868000Y-128270000D03*
D13*
X213868000Y-130810000D03*
D14*
X213868000Y-133350000D03*
X213868000Y-135890000D03*
X213868000Y-138430000D03*
X213868000Y-140970000D03*
D13*
X213868000Y-143510000D03*
D14*
X213868000Y-146050000D03*
X213868000Y-148590000D03*
D15*
X232548000Y-148590000D03*
X232548000Y-146050000D03*
X232548000Y-143510000D03*
X232548000Y-140970000D03*
X232548000Y-138430000D03*
X232548000Y-135890000D03*
X232548000Y-133350000D03*
X232548000Y-130810000D03*
X232548000Y-128270000D03*
X232548000Y-125730000D03*
X232548000Y-123190000D03*
X232548000Y-120650000D03*
X232548000Y-118110000D03*
X232548000Y-115570000D03*
X232548000Y-113030000D03*
X232548000Y-110490000D03*
X232548000Y-107950000D03*
X232548000Y-105410000D03*
X232548000Y-102870000D03*
X232548000Y-100330000D03*
X212968000Y-148590000D03*
X212968000Y-146050000D03*
X212968000Y-143510000D03*
X212968000Y-140970000D03*
X212968000Y-138430000D03*
X212968000Y-135890000D03*
X212968000Y-133350000D03*
X212968000Y-130810000D03*
X212968000Y-128270000D03*
X212968000Y-125730000D03*
X212968000Y-123190000D03*
X212968000Y-120650000D03*
X212968000Y-118110000D03*
X212968000Y-115570000D03*
X212968000Y-113030000D03*
X212968000Y-110490000D03*
X212968000Y-107950000D03*
X212968000Y-105410000D03*
X212968000Y-102870000D03*
X212968000Y-100330000D03*
D16*
X225483000Y-148460000D03*
X220033000Y-148460000D03*
D17*
X225183000Y-145430000D03*
X220333000Y-145430000D03*
D18*
X225298000Y-99660000D03*
D14*
X225298000Y-100560000D03*
D18*
X222758000Y-99660000D03*
D13*
X222758000Y-100560000D03*
D18*
X220218000Y-99660000D03*
D14*
X220218000Y-100560000D03*
%TD*%
M02*
