M48
INCH,TZ
T1C0.0394
T2C0.0402
T3C0.0512
%
G90
G05
T1
X91800Y-26500
X94800Y-35500
X84800Y-24500
X92800Y-30500
X81800Y-24500
X85800Y-22400
X85800Y-20400
X91800Y-29500
X85800Y-25500
X93800Y-35500
X84800Y-20400
X93800Y-29500
X94800Y-25500
X83800Y-35500
X83800Y-22400
X81800Y-19400
X92800Y-28500
X88800Y-24500
X93800Y-34500
X87800Y-22400
X84800Y-18400
X93800Y-26500
X80800Y-24500
X80800Y-34500
X94800Y-26500
X88800Y-23500
X92800Y-33500
X83800Y-30500
X83800Y-32500
X88800Y-28500
X93800Y-31500
X94400Y-49500
X94400Y-50500
X94400Y-51500
X94400Y-52500
X94400Y-53500
X94400Y-54500
X94400Y-55500
X94400Y-56500
X94400Y-57500
X94400Y-58500
X92800Y-27500
X82800Y-33500
X86800Y-33500
X81800Y-32500
X86800Y-36500
X88800Y-26500
X89800Y-36500
X82800Y-24500
X91800Y-30500
X87800Y-24500
X92800Y-35500
X86800Y-21400
X85800Y-19400
X82800Y-30500
X83800Y-24500
X84800Y-36500
X83800Y-19400
X89800Y-29500
X94800Y-24500
X94800Y-34500
X87800Y-21400
X87800Y-19400
X91800Y-28500
X85800Y-24500
X92800Y-34500
X84800Y-22400
X82800Y-18400
X85800Y-28500
X94800Y-23500
X80800Y-18400
X87800Y-34500
X83800Y-21400
X83800Y-27500
X87800Y-23500
X90800Y-33500
X83800Y-29500
X85800Y-32500
X86800Y-28500
X88800Y-31500
X89800Y-27500
X94800Y-32500
X87800Y-31500
X92800Y-31500
X87800Y-36500
X83800Y-26500
X85800Y-36500
X89800Y-25500
X90800Y-30500
X90800Y-26500
X93800Y-36500
X88800Y-20400
X81800Y-30500
X86800Y-26500
X86800Y-35500
X83800Y-20400
X88800Y-29500
X92800Y-24500
X82800Y-35500
X86800Y-22400
X84800Y-19400
X87800Y-28500
X87800Y-26500
X91800Y-34500
X88800Y-21400
X81800Y-18400
X89800Y-28500
X90800Y-23500
X83800Y-34500
X88800Y-22400
X86800Y-29500
X85800Y-23500
X89800Y-33500
X80800Y-23500
X84800Y-28500
X81800Y-31500
X80800Y-38300
X80800Y-39300
X80800Y-40300
X80800Y-41300
X80800Y-42300
X80800Y-43300
X80800Y-44300
X80800Y-45300
X80800Y-46300
X80800Y-47300
X82800Y-29500
X86800Y-32500
X81800Y-27500
X84800Y-31500
X93800Y-32500
X90800Y-32500
X88800Y-36500
X81800Y-26500
X87800Y-35500
X91800Y-24500
X88800Y-35500
X80800Y-21400
X89800Y-30500
X89800Y-26500
X92800Y-36500
X87800Y-20400
X90800Y-29500
X92800Y-25500
X82800Y-20400
X87800Y-29500
X87800Y-25500
X81800Y-35500
X84800Y-21400
X89800Y-18400
X83800Y-28500
X80800Y-25500
X85800Y-34500
X81800Y-21400
X91800Y-27500
X93800Y-23500
X82800Y-34500
X87800Y-27500
X84800Y-23500
X88800Y-33500
X80800Y-29500
X88800Y-32500
X93800Y-27500
X94800Y-31500
X94500Y-38300
X94500Y-39300
X94500Y-40300
X94500Y-41300
X94500Y-42300
X94500Y-43300
X94500Y-44300
X94500Y-45300
X94500Y-46300
X94500Y-47300
X80800Y-19400
X92800Y-26500
X87800Y-33500
X85800Y-31500
X86800Y-31500
X83800Y-36500
X91800Y-25500
X91800Y-35500
X80800Y-31500
X81800Y-25500
X88800Y-30500
X82800Y-26500
X91800Y-36500
X86800Y-20400
X80800Y-30500
X84800Y-26500
X81800Y-22400
X81800Y-20400
X84800Y-29500
X86800Y-24500
X90800Y-34500
X82800Y-22400
X88800Y-18400
X81800Y-28500
X93800Y-25500
X84800Y-34500
X94800Y-27500
X92800Y-23500
X81800Y-34500
X90800Y-28500
X83800Y-23500
X83800Y-33500
X88800Y-27500
X80800Y-32500
X85800Y-29500
X89800Y-31500
X83800Y-18400
X82800Y-28500
X90800Y-31500
X84800Y-33500
X85800Y-33500
X94800Y-36500
X81800Y-36500
X90800Y-24500
X89800Y-35500
X94800Y-30500
X84800Y-25500
X86800Y-30500
X88800Y-25500
X90800Y-36500
X89800Y-20400
X89800Y-19400
X92800Y-29500
X85800Y-26500
X89800Y-22400
X80800Y-20400
X81800Y-29500
X86800Y-25500
X86800Y-34500
X89800Y-21400
X86800Y-18400
X90800Y-27500
X90800Y-25500
X89800Y-34500
X86800Y-27500
X89800Y-23500
X91800Y-33500
X87800Y-30500
X82800Y-23500
X92800Y-32500
X82800Y-27500
X82800Y-31500
X94800Y-28500
X87800Y-32500
X87800Y-18400
X83800Y-31500
X94800Y-33500
X80800Y-33500
X80800Y-36500
X85800Y-35500
X89800Y-24500
X93800Y-30500
X93800Y-24500
X82800Y-19400
X84800Y-30500
X82800Y-25500
X90800Y-35500
X85800Y-21400
X86800Y-19400
X94800Y-29500
X80800Y-26500
X84800Y-35500
X82800Y-21400
X88800Y-19400
X93800Y-28500
X83800Y-25500
X80800Y-35500
X80800Y-22400
X85800Y-18400
X80800Y-27500
X91800Y-23500
X88800Y-34500
X84800Y-27500
X86800Y-23500
X93800Y-33500
X85800Y-30500
X81800Y-23500
X89800Y-32500
X85800Y-27500
X82800Y-32500
X80800Y-49500
X80800Y-50500
X80800Y-51500
X80800Y-52500
X80800Y-53500
X80800Y-54500
X80800Y-55500
X80800Y-56500
X80800Y-57500
X80800Y-58500
X80800Y-28500
X84800Y-32500
X91800Y-31500
X81800Y-33500
X91800Y-32500
X82800Y-36500
T2
X84200Y-39500
X84200Y-40500
X84200Y-41500
X84200Y-42500
X84200Y-43500
X84200Y-44500
X84200Y-45500
X84200Y-46500
X84200Y-47500
X84200Y-48500
X84200Y-49500
X84200Y-50500
X84200Y-51500
X84200Y-52500
X84200Y-53500
X84200Y-54500
X84200Y-55500
X84200Y-56500
X84200Y-57500
X84200Y-58500
X86700Y-39591
X87700Y-39591
X88700Y-39591
X91200Y-39500
X91200Y-40500
X91200Y-41500
X91200Y-42500
X91200Y-43500
X91200Y-44500
X91200Y-45500
X91200Y-46500
X91200Y-47500
X91200Y-48500
X91200Y-49500
X91200Y-50500
X91200Y-51500
X91200Y-52500
X91200Y-53500
X91200Y-54500
X91200Y-55500
X91200Y-56500
X91200Y-57500
X91200Y-58500
T3
X98600Y-40100
X98600Y-42100
X98600Y-44100
X98600Y-46100
X98600Y-48100
X98600Y-50100
X98600Y-52100
X98600Y-54100
X98600Y-56100
X98600Y-58100
X92800Y-20100
X94800Y-20100
X76900Y-40100
X76900Y-42100
X76900Y-44100
X76900Y-46100
X76900Y-48100
X76900Y-50100
X76900Y-52100
X76900Y-54100
X76900Y-56100
X76900Y-58100
X98600Y-19000
X98600Y-21000
X98600Y-23000
X98600Y-25000
X98600Y-27000
X98600Y-29000
X98600Y-31000
X98600Y-33000
X98600Y-35000
X98600Y-37000
X76900Y-18900
X76900Y-20900
X76900Y-22900
X76900Y-24900
X76900Y-26900
X76900Y-28900
X76900Y-30900
X76900Y-32900
X76900Y-34900
X76900Y-36900
T0
M30
