%TF.GenerationSoftware,KiCad,Pcbnew,(5.1.6)-1*%
%TF.CreationDate,2021-02-04T13:55:20-05:00*%
%TF.ProjectId,MKME Pico Breakout,4d4b4d45-2050-4696-936f-20427265616b,rev?*%
%TF.SameCoordinates,Original*%
%TF.FileFunction,Legend,Bot*%
%TF.FilePolarity,Positive*%
%FSLAX46Y46*%
G04 Gerber Fmt 4.6, Leading zero omitted, Abs format (unit mm)*
G04 Created by KiCad (PCBNEW (5.1.6)-1) date 2021-02-04 13:55:20*
%MOMM*%
%LPD*%
G01*
G04 APERTURE LIST*
%ADD10C,0.150000*%
G04 APERTURE END LIST*
D10*
X156042476Y-107132380D02*
X156042476Y-106132380D01*
X155661523Y-106132380D01*
X155566285Y-106180000D01*
X155518666Y-106227619D01*
X155471047Y-106322857D01*
X155471047Y-106465714D01*
X155518666Y-106560952D01*
X155566285Y-106608571D01*
X155661523Y-106656190D01*
X156042476Y-106656190D01*
X155042476Y-107132380D02*
X155042476Y-106132380D01*
X153471047Y-106608571D02*
X153328190Y-106656190D01*
X153280571Y-106703809D01*
X153232952Y-106799047D01*
X153232952Y-106941904D01*
X153280571Y-107037142D01*
X153328190Y-107084761D01*
X153423428Y-107132380D01*
X153804380Y-107132380D01*
X153804380Y-106132380D01*
X153471047Y-106132380D01*
X153375809Y-106180000D01*
X153328190Y-106227619D01*
X153280571Y-106322857D01*
X153280571Y-106418095D01*
X153328190Y-106513333D01*
X153375809Y-106560952D01*
X153471047Y-106608571D01*
X153804380Y-106608571D01*
X152232952Y-107132380D02*
X152566285Y-106656190D01*
X152804380Y-107132380D02*
X152804380Y-106132380D01*
X152423428Y-106132380D01*
X152328190Y-106180000D01*
X152280571Y-106227619D01*
X152232952Y-106322857D01*
X152232952Y-106465714D01*
X152280571Y-106560952D01*
X152328190Y-106608571D01*
X152423428Y-106656190D01*
X152804380Y-106656190D01*
X151804380Y-106608571D02*
X151471047Y-106608571D01*
X151328190Y-107132380D02*
X151804380Y-107132380D01*
X151804380Y-106132380D01*
X151328190Y-106132380D01*
X150947238Y-106846666D02*
X150471047Y-106846666D01*
X151042476Y-107132380D02*
X150709142Y-106132380D01*
X150375809Y-107132380D01*
X150042476Y-107132380D02*
X150042476Y-106132380D01*
X149471047Y-107132380D02*
X149899619Y-106560952D01*
X149471047Y-106132380D02*
X150042476Y-106703809D01*
X148852000Y-106132380D02*
X148661523Y-106132380D01*
X148566285Y-106180000D01*
X148471047Y-106275238D01*
X148423428Y-106465714D01*
X148423428Y-106799047D01*
X148471047Y-106989523D01*
X148566285Y-107084761D01*
X148661523Y-107132380D01*
X148852000Y-107132380D01*
X148947238Y-107084761D01*
X149042476Y-106989523D01*
X149090095Y-106799047D01*
X149090095Y-106465714D01*
X149042476Y-106275238D01*
X148947238Y-106180000D01*
X148852000Y-106132380D01*
X147994857Y-106132380D02*
X147994857Y-106941904D01*
X147947238Y-107037142D01*
X147899619Y-107084761D01*
X147804380Y-107132380D01*
X147613904Y-107132380D01*
X147518666Y-107084761D01*
X147471047Y-107037142D01*
X147423428Y-106941904D01*
X147423428Y-106132380D01*
X147090095Y-106132380D02*
X146518666Y-106132380D01*
X146804380Y-107132380D02*
X146804380Y-106132380D01*
X145566285Y-106132380D02*
X145232952Y-107132380D01*
X144899619Y-106132380D01*
X144042476Y-107132380D02*
X144613904Y-107132380D01*
X144328190Y-107132380D02*
X144328190Y-106132380D01*
X144423428Y-106275238D01*
X144518666Y-106370476D01*
X144613904Y-106418095D01*
X143613904Y-107037142D02*
X143566285Y-107084761D01*
X143613904Y-107132380D01*
X143661523Y-107084761D01*
X143613904Y-107037142D01*
X143613904Y-107132380D01*
X142947238Y-106132380D02*
X142852000Y-106132380D01*
X142756761Y-106180000D01*
X142709142Y-106227619D01*
X142661523Y-106322857D01*
X142613904Y-106513333D01*
X142613904Y-106751428D01*
X142661523Y-106941904D01*
X142709142Y-107037142D01*
X142756761Y-107084761D01*
X142852000Y-107132380D01*
X142947238Y-107132380D01*
X143042476Y-107084761D01*
X143090095Y-107037142D01*
X143137714Y-106941904D01*
X143185333Y-106751428D01*
X143185333Y-106513333D01*
X143137714Y-106322857D01*
X143090095Y-106227619D01*
X143042476Y-106180000D01*
X142947238Y-106132380D01*
X152717047Y-103322380D02*
X152717047Y-102322380D01*
X152383714Y-103036666D01*
X152050380Y-102322380D01*
X152050380Y-103322380D01*
X151574190Y-103322380D02*
X151574190Y-102322380D01*
X151002761Y-103322380D02*
X151431333Y-102750952D01*
X151002761Y-102322380D02*
X151574190Y-102893809D01*
X150574190Y-103322380D02*
X150574190Y-102322380D01*
X150240857Y-103036666D01*
X149907523Y-102322380D01*
X149907523Y-103322380D01*
X149431333Y-102798571D02*
X149098000Y-102798571D01*
X148955142Y-103322380D02*
X149431333Y-103322380D01*
X149431333Y-102322380D01*
X148955142Y-102322380D01*
X148526571Y-103227142D02*
X148478952Y-103274761D01*
X148526571Y-103322380D01*
X148574190Y-103274761D01*
X148526571Y-103227142D01*
X148526571Y-103322380D01*
X147859904Y-102322380D02*
X147669428Y-102322380D01*
X147574190Y-102370000D01*
X147478952Y-102465238D01*
X147431333Y-102655714D01*
X147431333Y-102989047D01*
X147478952Y-103179523D01*
X147574190Y-103274761D01*
X147669428Y-103322380D01*
X147859904Y-103322380D01*
X147955142Y-103274761D01*
X148050380Y-103179523D01*
X148098000Y-102989047D01*
X148098000Y-102655714D01*
X148050380Y-102465238D01*
X147955142Y-102370000D01*
X147859904Y-102322380D01*
X146431333Y-103322380D02*
X146764666Y-102846190D01*
X147002761Y-103322380D02*
X147002761Y-102322380D01*
X146621809Y-102322380D01*
X146526571Y-102370000D01*
X146478952Y-102417619D01*
X146431333Y-102512857D01*
X146431333Y-102655714D01*
X146478952Y-102750952D01*
X146526571Y-102798571D01*
X146621809Y-102846190D01*
X147002761Y-102846190D01*
X145478952Y-102370000D02*
X145574190Y-102322380D01*
X145717047Y-102322380D01*
X145859904Y-102370000D01*
X145955142Y-102465238D01*
X146002761Y-102560476D01*
X146050380Y-102750952D01*
X146050380Y-102893809D01*
X146002761Y-103084285D01*
X145955142Y-103179523D01*
X145859904Y-103274761D01*
X145717047Y-103322380D01*
X145621809Y-103322380D01*
X145478952Y-103274761D01*
X145431333Y-103227142D01*
X145431333Y-102893809D01*
X145621809Y-102893809D01*
M02*
