M48
INCH,TZ
T1C0.0394
T2C0.0402
T3C0.0512
%
G90
G05
T1
X52000Y-31500
X55000Y-24500
X62000Y-30500
X59000Y-23500
X66000Y-29500
X65000Y-22500
X66000Y-28500
X54300Y-16700
X55000Y-22500
X52000Y-29500
X52300Y-16700
X62000Y-23500
X61000Y-28500
X56000Y-24500
X54000Y-28500
X55300Y-16700
X63000Y-21500
X59000Y-28500
X60300Y-14700
X56000Y-21500
X55300Y-14700
X55000Y-21500
X59000Y-20500
X63000Y-26500
X62000Y-18500
X55000Y-26500
X52300Y-15700
X60000Y-18500
X52000Y-27500
X62000Y-19500
X66000Y-25500
X57000Y-25500
X58000Y-31500
X62000Y-24500
X59000Y-30500
X53000Y-24500
X61000Y-30500
X60000Y-22500
X65000Y-29500
X53000Y-23500
X52000Y-28500
X54000Y-22500
X64000Y-28500
X63000Y-24500
X63000Y-28500
X54000Y-24500
X57000Y-28500
X53300Y-16700
X62000Y-21500
X65000Y-27500
X57300Y-14700
X66000Y-20500
X54300Y-14700
X52000Y-21500
X55000Y-20500
X53300Y-13700
X59000Y-19500
X62000Y-26500
X56300Y-13700
X63000Y-18500
X56000Y-27500
X59000Y-18500
X61000Y-26500
X60000Y-19500
X58000Y-25500
X64000Y-18500
X56000Y-25500
X57000Y-30500
X61000Y-24500
X56000Y-30500
X66000Y-23500
X60000Y-30500
X56000Y-23500
X56000Y-29500
X66000Y-21500
X61000Y-27500
X52000Y-22500
X58000Y-29500
X65000Y-23500
X62000Y-28500
X52000Y-24500
X60000Y-27500
X60300Y-15700
X61000Y-21500
X62000Y-29500
X58300Y-14700
X61000Y-20500
X52300Y-14700
X65000Y-20500
X59300Y-13700
X53000Y-20500
X58000Y-19500
X60000Y-26500
X61300Y-15700
X53000Y-18500
X57000Y-27500
X56000Y-18500
X54000Y-26500
X57000Y-18500
X62000Y-25500
X54000Y-20500
X54000Y-25500
X65000Y-30500
X60000Y-24500
X66000Y-30500
X64000Y-23500
X58000Y-30500
X66000Y-22500
X63000Y-29500
X52000Y-23500
X66000Y-27500
X56300Y-16700
X55000Y-25500
X65800Y-33500
X65800Y-34500
X65800Y-35500
X65800Y-36500
X65800Y-37500
X65800Y-38500
X65800Y-39500
X65800Y-40500
X65800Y-41500
X65800Y-42500
X54000Y-29500
X61000Y-23500
X60000Y-28500
X61300Y-16700
X62000Y-22500
X64000Y-29500
X59300Y-15700
X60000Y-21500
X63000Y-27500
X54000Y-21500
X58300Y-13700
X56000Y-20500
X54300Y-13700
X52000Y-20500
X57300Y-15700
X58000Y-18500
X58000Y-26500
X65000Y-31500
X59300Y-14700
X55000Y-27500
X55000Y-18500
X53000Y-26500
X54000Y-18500
X65000Y-25500
X61000Y-31500
X55000Y-19500
X53000Y-25500
X56000Y-31500
X59000Y-24500
X53000Y-31500
X60000Y-23500
X54000Y-30500
X56000Y-22500
X52300Y-13700
X61000Y-29500
X64000Y-22500
X55000Y-29500
X58000Y-22500
X65000Y-28500
X61000Y-22500
X55000Y-28500
X57300Y-16700
X65000Y-21500
X55000Y-30500
X56300Y-15700
X59000Y-21500
X59000Y-27500
X52000Y-18500
X53000Y-21500
X57300Y-13700
X60000Y-20500
X55300Y-13700
X63000Y-19500
X53300Y-15700
X56000Y-19500
X57000Y-26500
X66000Y-31500
X61300Y-13700
X53000Y-19500
X56000Y-26500
X63000Y-31500
X52000Y-26500
X59000Y-25500
X57000Y-31500
X66000Y-19500
X52000Y-25500
X55000Y-31500
X58000Y-24500
X64000Y-30500
X58000Y-23500
X53000Y-30500
X53000Y-22500
X59000Y-29500
X63000Y-22500
X52200Y-44000
X52200Y-45000
X52200Y-46000
X52200Y-47000
X52200Y-48000
X52200Y-49000
X52200Y-50000
X52200Y-51000
X52200Y-52000
X52200Y-53000
X53000Y-29500
X66000Y-24500
X56000Y-28500
X57000Y-23500
X58000Y-27500
X60300Y-16700
X58000Y-20500
X53000Y-28500
X55300Y-15700
X58000Y-21500
X56300Y-14700
X57000Y-20500
X60300Y-13700
X64000Y-20500
X61000Y-19500
X66000Y-26500
X58300Y-15700
X52000Y-19500
X59000Y-26500
X57000Y-19500
X53000Y-27500
X64000Y-19500
X64000Y-25500
X64000Y-31500
X65000Y-19500
X63000Y-25500
X60000Y-31500
X65000Y-24500
X54000Y-31500
X57000Y-24500
X63000Y-30500
X54000Y-23500
X52000Y-30500
X55000Y-23500
X57000Y-29500
X57000Y-22500
X60000Y-29500
X63000Y-23500
X52200Y-33300
X52200Y-34300
X52200Y-35300
X52200Y-36300
X52200Y-37300
X52200Y-38300
X52200Y-39300
X52200Y-40300
X52200Y-41300
X52200Y-42300
X62000Y-27500
X59300Y-16700
X59000Y-22500
X58000Y-28500
X58300Y-16700
X64000Y-21500
X64000Y-27500
X54300Y-15700
X57000Y-21500
X65700Y-44100
X65700Y-45100
X65700Y-46100
X65700Y-47100
X65700Y-48100
X65700Y-49100
X65700Y-50100
X65700Y-51100
X65700Y-52100
X65700Y-53100
X53300Y-14700
X63000Y-20500
X62000Y-20500
X61000Y-18500
X64000Y-26500
X61300Y-14700
X66000Y-18500
X65000Y-26500
X54000Y-19500
X54000Y-27500
X60000Y-25500
X62000Y-31500
X65000Y-18500
X61000Y-25500
X59000Y-31500
X64000Y-24500
T2
X55343Y-33960
X55343Y-34960
X55343Y-35960
X55343Y-36960
X55343Y-37960
X55343Y-38960
X55343Y-39960
X55343Y-40960
X55343Y-41960
X55343Y-42960
X55343Y-43960
X55343Y-44960
X55343Y-45960
X55343Y-46960
X55343Y-47960
X55343Y-48960
X55343Y-49960
X55343Y-50960
X55343Y-51960
X55343Y-52960
X57843Y-52869
X58843Y-52869
X59843Y-52869
X62343Y-33960
X62343Y-34960
X62343Y-35960
X62343Y-36960
X62343Y-37960
X62343Y-38960
X62343Y-39960
X62343Y-40960
X62343Y-41960
X62343Y-42960
X62343Y-43960
X62343Y-44960
X62343Y-45960
X62343Y-46960
X62343Y-47960
X62343Y-48960
X62343Y-49960
X62343Y-50960
X62343Y-51960
X62343Y-52960
T3
X69400Y-13900
X69400Y-15900
X69400Y-17900
X69400Y-19900
X69400Y-21900
X69400Y-23900
X69400Y-25900
X69400Y-27900
X69400Y-29900
X69400Y-31900
X63500Y-15100
X65500Y-15100
X48600Y-34600
X48600Y-36600
X48600Y-38600
X48600Y-40600
X48600Y-42600
X48600Y-44600
X48600Y-46600
X48600Y-48600
X48600Y-50600
X48600Y-52600
X48600Y-13800
X48600Y-15800
X48600Y-17800
X48600Y-19800
X48600Y-21800
X48600Y-23800
X48600Y-25800
X48600Y-27800
X48600Y-29800
X48600Y-31800
X69400Y-34600
X69400Y-36600
X69400Y-38600
X69400Y-40600
X69400Y-42600
X69400Y-44600
X69400Y-46600
X69400Y-48600
X69400Y-50600
X69400Y-52600
T0
M30
