<svg version="1.1" xmlns="http://www.w3.org/2000/svg" xmlns:xlink="http://www.w3.org/1999/xlink" stroke-linecap="round" stroke-linejoin="round" stroke-width="0" fill-rule="evenodd" width="2.1311999999999998in" height="3.9794in" viewBox="4834.4 -5329.7 2131.2 3979.4" id="IO7cZ_6xP8pP5Nof3WkU"><defs><circle cx="0" cy="0" r="19.7" id="IO7cZ_6xP8pP5Nof3WkU_pad-1"/><circle cx="0" cy="0" r="20.1" id="IO7cZ_6xP8pP5Nof3WkU_pad-2"/><circle cx="0" cy="0" r="25.6" id="IO7cZ_6xP8pP5Nof3WkU_pad-3"/></defs><g transform="translate(0,-6680) scale(1,-1)" fill="currentColor" stroke="currentColor"><use xlink:href="#IO7cZ_6xP8pP5Nof3WkU_pad-1" x="5200" y="-3150"/><use xlink:href="#IO7cZ_6xP8pP5Nof3WkU_pad-1" x="5500" y="-2450"/><use xlink:href="#IO7cZ_6xP8pP5Nof3WkU_pad-1" x="6200" y="-3050"/><use xlink:href="#IO7cZ_6xP8pP5Nof3WkU_pad-1" x="5900" y="-2350"/><use xlink:href="#IO7cZ_6xP8pP5Nof3WkU_pad-1" x="6600" y="-2950"/><use xlink:href="#IO7cZ_6xP8pP5Nof3WkU_pad-1" x="6500" y="-2250"/><use xlink:href="#IO7cZ_6xP8pP5Nof3WkU_pad-1" x="6600" y="-2850"/><use xlink:href="#IO7cZ_6xP8pP5Nof3WkU_pad-1" x="5430" y="-1670"/><use xlink:href="#IO7cZ_6xP8pP5Nof3WkU_pad-1" x="5500" y="-2250"/><use xlink:href="#IO7cZ_6xP8pP5Nof3WkU_pad-1" x="5200" y="-2950"/><use xlink:href="#IO7cZ_6xP8pP5Nof3WkU_pad-1" x="5230" y="-1670"/><use xlink:href="#IO7cZ_6xP8pP5Nof3WkU_pad-1" x="6200" y="-2350"/><use xlink:href="#IO7cZ_6xP8pP5Nof3WkU_pad-1" x="6100" y="-2850"/><use xlink:href="#IO7cZ_6xP8pP5Nof3WkU_pad-1" x="5600" y="-2450"/><use xlink:href="#IO7cZ_6xP8pP5Nof3WkU_pad-1" x="5400" y="-2850"/><use xlink:href="#IO7cZ_6xP8pP5Nof3WkU_pad-1" x="5530" y="-1670"/><use xlink:href="#IO7cZ_6xP8pP5Nof3WkU_pad-1" x="6300" y="-2150"/><use xlink:href="#IO7cZ_6xP8pP5Nof3WkU_pad-1" x="5900" y="-2850"/><use xlink:href="#IO7cZ_6xP8pP5Nof3WkU_pad-1" x="6030" y="-1470"/><use xlink:href="#IO7cZ_6xP8pP5Nof3WkU_pad-1" x="5600" y="-2150"/><use xlink:href="#IO7cZ_6xP8pP5Nof3WkU_pad-1" x="5530" y="-1470"/><use xlink:href="#IO7cZ_6xP8pP5Nof3WkU_pad-1" x="5500" y="-2150"/><use xlink:href="#IO7cZ_6xP8pP5Nof3WkU_pad-1" x="5900" y="-2050"/><use xlink:href="#IO7cZ_6xP8pP5Nof3WkU_pad-1" x="6300" y="-2650"/><use xlink:href="#IO7cZ_6xP8pP5Nof3WkU_pad-1" x="6200" y="-1850"/><use xlink:href="#IO7cZ_6xP8pP5Nof3WkU_pad-1" x="5500" y="-2650"/><use xlink:href="#IO7cZ_6xP8pP5Nof3WkU_pad-1" x="5230" y="-1570"/><use xlink:href="#IO7cZ_6xP8pP5Nof3WkU_pad-1" x="6000" y="-1850"/><use xlink:href="#IO7cZ_6xP8pP5Nof3WkU_pad-1" x="5200" y="-2750"/><use xlink:href="#IO7cZ_6xP8pP5Nof3WkU_pad-1" x="6200" y="-1950"/><use xlink:href="#IO7cZ_6xP8pP5Nof3WkU_pad-1" x="6600" y="-2550"/><use xlink:href="#IO7cZ_6xP8pP5Nof3WkU_pad-1" x="5700" y="-2550"/><use xlink:href="#IO7cZ_6xP8pP5Nof3WkU_pad-1" x="5800" y="-3150"/><use xlink:href="#IO7cZ_6xP8pP5Nof3WkU_pad-1" x="6200" y="-2450"/><use xlink:href="#IO7cZ_6xP8pP5Nof3WkU_pad-1" x="5900" y="-3050"/><use xlink:href="#IO7cZ_6xP8pP5Nof3WkU_pad-1" x="5300" y="-2450"/><use xlink:href="#IO7cZ_6xP8pP5Nof3WkU_pad-1" x="6100" y="-3050"/><use xlink:href="#IO7cZ_6xP8pP5Nof3WkU_pad-1" x="6000" y="-2250"/><use xlink:href="#IO7cZ_6xP8pP5Nof3WkU_pad-1" x="6500" y="-2950"/><use xlink:href="#IO7cZ_6xP8pP5Nof3WkU_pad-1" x="5300" y="-2350"/><use xlink:href="#IO7cZ_6xP8pP5Nof3WkU_pad-1" x="5200" y="-2850"/><use xlink:href="#IO7cZ_6xP8pP5Nof3WkU_pad-1" x="5400" y="-2250"/><use xlink:href="#IO7cZ_6xP8pP5Nof3WkU_pad-1" x="6400" y="-2850"/><use xlink:href="#IO7cZ_6xP8pP5Nof3WkU_pad-1" x="6300" y="-2450"/><use xlink:href="#IO7cZ_6xP8pP5Nof3WkU_pad-1" x="6300" y="-2850"/><use xlink:href="#IO7cZ_6xP8pP5Nof3WkU_pad-1" x="5400" y="-2450"/><use xlink:href="#IO7cZ_6xP8pP5Nof3WkU_pad-1" x="5700" y="-2850"/><use xlink:href="#IO7cZ_6xP8pP5Nof3WkU_pad-1" x="5330" y="-1670"/><use xlink:href="#IO7cZ_6xP8pP5Nof3WkU_pad-1" x="6200" y="-2150"/><use xlink:href="#IO7cZ_6xP8pP5Nof3WkU_pad-1" x="6500" y="-2750"/><use xlink:href="#IO7cZ_6xP8pP5Nof3WkU_pad-1" x="5730" y="-1470"/><use xlink:href="#IO7cZ_6xP8pP5Nof3WkU_pad-1" x="6600" y="-2050"/><use xlink:href="#IO7cZ_6xP8pP5Nof3WkU_pad-1" x="5430" y="-1470"/><use xlink:href="#IO7cZ_6xP8pP5Nof3WkU_pad-1" x="5200" y="-2150"/><use xlink:href="#IO7cZ_6xP8pP5Nof3WkU_pad-1" x="5500" y="-2050"/><use xlink:href="#IO7cZ_6xP8pP5Nof3WkU_pad-1" x="5330" y="-1370"/><use xlink:href="#IO7cZ_6xP8pP5Nof3WkU_pad-1" x="5900" y="-1950"/><use xlink:href="#IO7cZ_6xP8pP5Nof3WkU_pad-1" x="6200" y="-2650"/><use xlink:href="#IO7cZ_6xP8pP5Nof3WkU_pad-1" x="5630" y="-1370"/><use xlink:href="#IO7cZ_6xP8pP5Nof3WkU_pad-1" x="6300" y="-1850"/><use xlink:href="#IO7cZ_6xP8pP5Nof3WkU_pad-1" x="5600" y="-2750"/><use xlink:href="#IO7cZ_6xP8pP5Nof3WkU_pad-1" x="5900" y="-1850"/><use xlink:href="#IO7cZ_6xP8pP5Nof3WkU_pad-1" x="6100" y="-2650"/><use xlink:href="#IO7cZ_6xP8pP5Nof3WkU_pad-1" x="6000" y="-1950"/><use xlink:href="#IO7cZ_6xP8pP5Nof3WkU_pad-1" x="5800" y="-2550"/><use xlink:href="#IO7cZ_6xP8pP5Nof3WkU_pad-1" x="6400" y="-1850"/><use xlink:href="#IO7cZ_6xP8pP5Nof3WkU_pad-1" x="5600" y="-2550"/><use xlink:href="#IO7cZ_6xP8pP5Nof3WkU_pad-1" x="5700" y="-3050"/><use xlink:href="#IO7cZ_6xP8pP5Nof3WkU_pad-1" x="6100" y="-2450"/><use xlink:href="#IO7cZ_6xP8pP5Nof3WkU_pad-1" x="5600" y="-3050"/><use xlink:href="#IO7cZ_6xP8pP5Nof3WkU_pad-1" x="6600" y="-2350"/><use xlink:href="#IO7cZ_6xP8pP5Nof3WkU_pad-1" x="6000" y="-3050"/><use xlink:href="#IO7cZ_6xP8pP5Nof3WkU_pad-1" x="5600" y="-2350"/><use xlink:href="#IO7cZ_6xP8pP5Nof3WkU_pad-1" x="5600" y="-2950"/><use xlink:href="#IO7cZ_6xP8pP5Nof3WkU_pad-1" x="6600" y="-2150"/><use xlink:href="#IO7cZ_6xP8pP5Nof3WkU_pad-1" x="6100" y="-2750"/><use xlink:href="#IO7cZ_6xP8pP5Nof3WkU_pad-1" x="5200" y="-2250"/><use xlink:href="#IO7cZ_6xP8pP5Nof3WkU_pad-1" x="5800" y="-2950"/><use xlink:href="#IO7cZ_6xP8pP5Nof3WkU_pad-1" x="6500" y="-2350"/><use xlink:href="#IO7cZ_6xP8pP5Nof3WkU_pad-1" x="6200" y="-2850"/><use xlink:href="#IO7cZ_6xP8pP5Nof3WkU_pad-1" x="5200" y="-2450"/><use xlink:href="#IO7cZ_6xP8pP5Nof3WkU_pad-1" x="6000" y="-2750"/><use xlink:href="#IO7cZ_6xP8pP5Nof3WkU_pad-1" x="6030" y="-1570"/><use xlink:href="#IO7cZ_6xP8pP5Nof3WkU_pad-1" x="6100" y="-2150"/><use xlink:href="#IO7cZ_6xP8pP5Nof3WkU_pad-1" x="6200" y="-2950"/><use xlink:href="#IO7cZ_6xP8pP5Nof3WkU_pad-1" x="5830" y="-1470"/><use xlink:href="#IO7cZ_6xP8pP5Nof3WkU_pad-1" x="6100" y="-2050"/><use xlink:href="#IO7cZ_6xP8pP5Nof3WkU_pad-1" x="5230" y="-1470"/><use xlink:href="#IO7cZ_6xP8pP5Nof3WkU_pad-1" x="6500" y="-2050"/><use xlink:href="#IO7cZ_6xP8pP5Nof3WkU_pad-1" x="5930" y="-1370"/><use xlink:href="#IO7cZ_6xP8pP5Nof3WkU_pad-1" x="5300" y="-2050"/><use xlink:href="#IO7cZ_6xP8pP5Nof3WkU_pad-1" x="5800" y="-1950"/><use xlink:href="#IO7cZ_6xP8pP5Nof3WkU_pad-1" x="6000" y="-2650"/><use xlink:href="#IO7cZ_6xP8pP5Nof3WkU_pad-1" x="6130" y="-1570"/><use xlink:href="#IO7cZ_6xP8pP5Nof3WkU_pad-1" x="5300" y="-1850"/><use xlink:href="#IO7cZ_6xP8pP5Nof3WkU_pad-1" x="5700" y="-2750"/><use xlink:href="#IO7cZ_6xP8pP5Nof3WkU_pad-1" x="5600" y="-1850"/><use xlink:href="#IO7cZ_6xP8pP5Nof3WkU_pad-1" x="5400" y="-2650"/><use xlink:href="#IO7cZ_6xP8pP5Nof3WkU_pad-1" x="5700" y="-1850"/><use xlink:href="#IO7cZ_6xP8pP5Nof3WkU_pad-1" x="6200" y="-2550"/><use xlink:href="#IO7cZ_6xP8pP5Nof3WkU_pad-1" x="5400" y="-2050"/><use xlink:href="#IO7cZ_6xP8pP5Nof3WkU_pad-1" x="5400" y="-2550"/><use xlink:href="#IO7cZ_6xP8pP5Nof3WkU_pad-1" x="6500" y="-3050"/><use xlink:href="#IO7cZ_6xP8pP5Nof3WkU_pad-1" x="6000" y="-2450"/><use xlink:href="#IO7cZ_6xP8pP5Nof3WkU_pad-1" x="6600" y="-3050"/><use xlink:href="#IO7cZ_6xP8pP5Nof3WkU_pad-1" x="6400" y="-2350"/><use xlink:href="#IO7cZ_6xP8pP5Nof3WkU_pad-1" x="5800" y="-3050"/><use xlink:href="#IO7cZ_6xP8pP5Nof3WkU_pad-1" x="6600" y="-2250"/><use xlink:href="#IO7cZ_6xP8pP5Nof3WkU_pad-1" x="6300" y="-2950"/><use xlink:href="#IO7cZ_6xP8pP5Nof3WkU_pad-1" x="5200" y="-2350"/><use xlink:href="#IO7cZ_6xP8pP5Nof3WkU_pad-1" x="6600" y="-2750"/><use xlink:href="#IO7cZ_6xP8pP5Nof3WkU_pad-1" x="5630" y="-1670"/><use xlink:href="#IO7cZ_6xP8pP5Nof3WkU_pad-1" x="5500" y="-2550"/><use xlink:href="#IO7cZ_6xP8pP5Nof3WkU_pad-1" x="6580" y="-3350"/><use xlink:href="#IO7cZ_6xP8pP5Nof3WkU_pad-1" x="6580" y="-3450"/><use xlink:href="#IO7cZ_6xP8pP5Nof3WkU_pad-1" x="6580" y="-3550"/><use xlink:href="#IO7cZ_6xP8pP5Nof3WkU_pad-1" x="6580" y="-3650"/><use xlink:href="#IO7cZ_6xP8pP5Nof3WkU_pad-1" x="6580" y="-3750"/><use xlink:href="#IO7cZ_6xP8pP5Nof3WkU_pad-1" x="6580" y="-3850"/><use xlink:href="#IO7cZ_6xP8pP5Nof3WkU_pad-1" x="6580" y="-3950"/><use xlink:href="#IO7cZ_6xP8pP5Nof3WkU_pad-1" x="6580" y="-4050"/><use xlink:href="#IO7cZ_6xP8pP5Nof3WkU_pad-1" x="6580" y="-4150"/><use xlink:href="#IO7cZ_6xP8pP5Nof3WkU_pad-1" x="6580" y="-4250"/><use xlink:href="#IO7cZ_6xP8pP5Nof3WkU_pad-1" x="5400" y="-2950"/><use xlink:href="#IO7cZ_6xP8pP5Nof3WkU_pad-1" x="6100" y="-2350"/><use xlink:href="#IO7cZ_6xP8pP5Nof3WkU_pad-1" x="6000" y="-2850"/><use xlink:href="#IO7cZ_6xP8pP5Nof3WkU_pad-1" x="6130" y="-1670"/><use xlink:href="#IO7cZ_6xP8pP5Nof3WkU_pad-1" x="6200" y="-2250"/><use xlink:href="#IO7cZ_6xP8pP5Nof3WkU_pad-1" x="6400" y="-2950"/><use xlink:href="#IO7cZ_6xP8pP5Nof3WkU_pad-1" x="5930" y="-1570"/><use xlink:href="#IO7cZ_6xP8pP5Nof3WkU_pad-1" x="6000" y="-2150"/><use xlink:href="#IO7cZ_6xP8pP5Nof3WkU_pad-1" x="6300" y="-2750"/><use xlink:href="#IO7cZ_6xP8pP5Nof3WkU_pad-1" x="5400" y="-2150"/><use xlink:href="#IO7cZ_6xP8pP5Nof3WkU_pad-1" x="5830" y="-1370"/><use xlink:href="#IO7cZ_6xP8pP5Nof3WkU_pad-1" x="5600" y="-2050"/><use xlink:href="#IO7cZ_6xP8pP5Nof3WkU_pad-1" x="5430" y="-1370"/><use xlink:href="#IO7cZ_6xP8pP5Nof3WkU_pad-1" x="5200" y="-2050"/><use xlink:href="#IO7cZ_6xP8pP5Nof3WkU_pad-1" x="5730" y="-1570"/><use xlink:href="#IO7cZ_6xP8pP5Nof3WkU_pad-1" x="5800" y="-1850"/><use xlink:href="#IO7cZ_6xP8pP5Nof3WkU_pad-1" x="5800" y="-2650"/><use xlink:href="#IO7cZ_6xP8pP5Nof3WkU_pad-1" x="6500" y="-3150"/><use xlink:href="#IO7cZ_6xP8pP5Nof3WkU_pad-1" x="5930" y="-1470"/><use xlink:href="#IO7cZ_6xP8pP5Nof3WkU_pad-1" x="5500" y="-2750"/><use xlink:href="#IO7cZ_6xP8pP5Nof3WkU_pad-1" x="5500" y="-1850"/><use xlink:href="#IO7cZ_6xP8pP5Nof3WkU_pad-1" x="5300" y="-2650"/><use xlink:href="#IO7cZ_6xP8pP5Nof3WkU_pad-1" x="5400" y="-1850"/><use xlink:href="#IO7cZ_6xP8pP5Nof3WkU_pad-1" x="6500" y="-2550"/><use xlink:href="#IO7cZ_6xP8pP5Nof3WkU_pad-1" x="6100" y="-3150"/><use xlink:href="#IO7cZ_6xP8pP5Nof3WkU_pad-1" x="5500" y="-1950"/><use xlink:href="#IO7cZ_6xP8pP5Nof3WkU_pad-1" x="5300" y="-2550"/><use xlink:href="#IO7cZ_6xP8pP5Nof3WkU_pad-1" x="5600" y="-3150"/><use xlink:href="#IO7cZ_6xP8pP5Nof3WkU_pad-1" x="5900" y="-2450"/><use xlink:href="#IO7cZ_6xP8pP5Nof3WkU_pad-1" x="5300" y="-3150"/><use xlink:href="#IO7cZ_6xP8pP5Nof3WkU_pad-1" x="6000" y="-2350"/><use xlink:href="#IO7cZ_6xP8pP5Nof3WkU_pad-1" x="5400" y="-3050"/><use xlink:href="#IO7cZ_6xP8pP5Nof3WkU_pad-1" x="5600" y="-2250"/><use xlink:href="#IO7cZ_6xP8pP5Nof3WkU_pad-1" x="5230" y="-1370"/><use xlink:href="#IO7cZ_6xP8pP5Nof3WkU_pad-1" x="6100" y="-2950"/><use xlink:href="#IO7cZ_6xP8pP5Nof3WkU_pad-1" x="6400" y="-2250"/><use xlink:href="#IO7cZ_6xP8pP5Nof3WkU_pad-1" x="5500" y="-2950"/><use xlink:href="#IO7cZ_6xP8pP5Nof3WkU_pad-1" x="5800" y="-2250"/><use xlink:href="#IO7cZ_6xP8pP5Nof3WkU_pad-1" x="6500" y="-2850"/><use xlink:href="#IO7cZ_6xP8pP5Nof3WkU_pad-1" x="6100" y="-2250"/><use xlink:href="#IO7cZ_6xP8pP5Nof3WkU_pad-1" x="5500" y="-2850"/><use xlink:href="#IO7cZ_6xP8pP5Nof3WkU_pad-1" x="5730" y="-1670"/><use xlink:href="#IO7cZ_6xP8pP5Nof3WkU_pad-1" x="6500" y="-2150"/><use xlink:href="#IO7cZ_6xP8pP5Nof3WkU_pad-1" x="5500" y="-3050"/><use xlink:href="#IO7cZ_6xP8pP5Nof3WkU_pad-1" x="5630" y="-1570"/><use xlink:href="#IO7cZ_6xP8pP5Nof3WkU_pad-1" x="5900" y="-2150"/><use xlink:href="#IO7cZ_6xP8pP5Nof3WkU_pad-1" x="5900" y="-2750"/><use xlink:href="#IO7cZ_6xP8pP5Nof3WkU_pad-1" x="5200" y="-1850"/><use xlink:href="#IO7cZ_6xP8pP5Nof3WkU_pad-1" x="5300" y="-2150"/><use xlink:href="#IO7cZ_6xP8pP5Nof3WkU_pad-1" x="5730" y="-1370"/><use xlink:href="#IO7cZ_6xP8pP5Nof3WkU_pad-1" x="6000" y="-2050"/><use xlink:href="#IO7cZ_6xP8pP5Nof3WkU_pad-1" x="5530" y="-1370"/><use xlink:href="#IO7cZ_6xP8pP5Nof3WkU_pad-1" x="6300" y="-1950"/><use xlink:href="#IO7cZ_6xP8pP5Nof3WkU_pad-1" x="5330" y="-1570"/><use xlink:href="#IO7cZ_6xP8pP5Nof3WkU_pad-1" x="5600" y="-1950"/><use xlink:href="#IO7cZ_6xP8pP5Nof3WkU_pad-1" x="5700" y="-2650"/><use xlink:href="#IO7cZ_6xP8pP5Nof3WkU_pad-1" x="6600" y="-3150"/><use xlink:href="#IO7cZ_6xP8pP5Nof3WkU_pad-1" x="6130" y="-1370"/><use xlink:href="#IO7cZ_6xP8pP5Nof3WkU_pad-1" x="5300" y="-1950"/><use xlink:href="#IO7cZ_6xP8pP5Nof3WkU_pad-1" x="5600" y="-2650"/><use xlink:href="#IO7cZ_6xP8pP5Nof3WkU_pad-1" x="6300" y="-3150"/><use xlink:href="#IO7cZ_6xP8pP5Nof3WkU_pad-1" x="5200" y="-2650"/><use xlink:href="#IO7cZ_6xP8pP5Nof3WkU_pad-1" x="5900" y="-2550"/><use xlink:href="#IO7cZ_6xP8pP5Nof3WkU_pad-1" x="5700" y="-3150"/><use xlink:href="#IO7cZ_6xP8pP5Nof3WkU_pad-1" x="6600" y="-1950"/><use xlink:href="#IO7cZ_6xP8pP5Nof3WkU_pad-1" x="5200" y="-2550"/><use xlink:href="#IO7cZ_6xP8pP5Nof3WkU_pad-1" x="5500" y="-3150"/><use xlink:href="#IO7cZ_6xP8pP5Nof3WkU_pad-1" x="5800" y="-2450"/><use xlink:href="#IO7cZ_6xP8pP5Nof3WkU_pad-1" x="6400" y="-3050"/><use xlink:href="#IO7cZ_6xP8pP5Nof3WkU_pad-1" x="5800" y="-2350"/><use xlink:href="#IO7cZ_6xP8pP5Nof3WkU_pad-1" x="5300" y="-3050"/><use xlink:href="#IO7cZ_6xP8pP5Nof3WkU_pad-1" x="5300" y="-2250"/><use xlink:href="#IO7cZ_6xP8pP5Nof3WkU_pad-1" x="5900" y="-2950"/><use xlink:href="#IO7cZ_6xP8pP5Nof3WkU_pad-1" x="6300" y="-2250"/><use xlink:href="#IO7cZ_6xP8pP5Nof3WkU_pad-1" x="5220" y="-4400"/><use xlink:href="#IO7cZ_6xP8pP5Nof3WkU_pad-1" x="5220" y="-4500"/><use xlink:href="#IO7cZ_6xP8pP5Nof3WkU_pad-1" x="5220" y="-4600"/><use xlink:href="#IO7cZ_6xP8pP5Nof3WkU_pad-1" x="5220" y="-4700"/><use xlink:href="#IO7cZ_6xP8pP5Nof3WkU_pad-1" x="5220" y="-4800"/><use xlink:href="#IO7cZ_6xP8pP5Nof3WkU_pad-1" x="5220" y="-4900"/><use xlink:href="#IO7cZ_6xP8pP5Nof3WkU_pad-1" x="5220" y="-5000"/><use xlink:href="#IO7cZ_6xP8pP5Nof3WkU_pad-1" x="5220" y="-5100"/><use xlink:href="#IO7cZ_6xP8pP5Nof3WkU_pad-1" x="5220" y="-5200"/><use xlink:href="#IO7cZ_6xP8pP5Nof3WkU_pad-1" x="5220" y="-5300"/><use xlink:href="#IO7cZ_6xP8pP5Nof3WkU_pad-1" x="5300" y="-2950"/><use xlink:href="#IO7cZ_6xP8pP5Nof3WkU_pad-1" x="6600" y="-2450"/><use xlink:href="#IO7cZ_6xP8pP5Nof3WkU_pad-1" x="5600" y="-2850"/><use xlink:href="#IO7cZ_6xP8pP5Nof3WkU_pad-1" x="5700" y="-2350"/><use xlink:href="#IO7cZ_6xP8pP5Nof3WkU_pad-1" x="5800" y="-2750"/><use xlink:href="#IO7cZ_6xP8pP5Nof3WkU_pad-1" x="6030" y="-1670"/><use xlink:href="#IO7cZ_6xP8pP5Nof3WkU_pad-1" x="5800" y="-2050"/><use xlink:href="#IO7cZ_6xP8pP5Nof3WkU_pad-1" x="5300" y="-2850"/><use xlink:href="#IO7cZ_6xP8pP5Nof3WkU_pad-1" x="5530" y="-1570"/><use xlink:href="#IO7cZ_6xP8pP5Nof3WkU_pad-1" x="5800" y="-2150"/><use xlink:href="#IO7cZ_6xP8pP5Nof3WkU_pad-1" x="5630" y="-1470"/><use xlink:href="#IO7cZ_6xP8pP5Nof3WkU_pad-1" x="5700" y="-2050"/><use xlink:href="#IO7cZ_6xP8pP5Nof3WkU_pad-1" x="6030" y="-1370"/><use xlink:href="#IO7cZ_6xP8pP5Nof3WkU_pad-1" x="6400" y="-2050"/><use xlink:href="#IO7cZ_6xP8pP5Nof3WkU_pad-1" x="6100" y="-1950"/><use xlink:href="#IO7cZ_6xP8pP5Nof3WkU_pad-1" x="6600" y="-2650"/><use xlink:href="#IO7cZ_6xP8pP5Nof3WkU_pad-1" x="5830" y="-1570"/><use xlink:href="#IO7cZ_6xP8pP5Nof3WkU_pad-1" x="5200" y="-1950"/><use xlink:href="#IO7cZ_6xP8pP5Nof3WkU_pad-1" x="5900" y="-2650"/><use xlink:href="#IO7cZ_6xP8pP5Nof3WkU_pad-1" x="5700" y="-1950"/><use xlink:href="#IO7cZ_6xP8pP5Nof3WkU_pad-1" x="5300" y="-2750"/><use xlink:href="#IO7cZ_6xP8pP5Nof3WkU_pad-1" x="6400" y="-1950"/><use xlink:href="#IO7cZ_6xP8pP5Nof3WkU_pad-1" x="6400" y="-2550"/><use xlink:href="#IO7cZ_6xP8pP5Nof3WkU_pad-1" x="6400" y="-3150"/><use xlink:href="#IO7cZ_6xP8pP5Nof3WkU_pad-1" x="6500" y="-1950"/><use xlink:href="#IO7cZ_6xP8pP5Nof3WkU_pad-1" x="6300" y="-2550"/><use xlink:href="#IO7cZ_6xP8pP5Nof3WkU_pad-1" x="6000" y="-3150"/><use xlink:href="#IO7cZ_6xP8pP5Nof3WkU_pad-1" x="6500" y="-2450"/><use xlink:href="#IO7cZ_6xP8pP5Nof3WkU_pad-1" x="5400" y="-3150"/><use xlink:href="#IO7cZ_6xP8pP5Nof3WkU_pad-1" x="5700" y="-2450"/><use xlink:href="#IO7cZ_6xP8pP5Nof3WkU_pad-1" x="6300" y="-3050"/><use xlink:href="#IO7cZ_6xP8pP5Nof3WkU_pad-1" x="5400" y="-2350"/><use xlink:href="#IO7cZ_6xP8pP5Nof3WkU_pad-1" x="5200" y="-3050"/><use xlink:href="#IO7cZ_6xP8pP5Nof3WkU_pad-1" x="5500" y="-2350"/><use xlink:href="#IO7cZ_6xP8pP5Nof3WkU_pad-1" x="5700" y="-2950"/><use xlink:href="#IO7cZ_6xP8pP5Nof3WkU_pad-1" x="5700" y="-2250"/><use xlink:href="#IO7cZ_6xP8pP5Nof3WkU_pad-1" x="6000" y="-2950"/><use xlink:href="#IO7cZ_6xP8pP5Nof3WkU_pad-1" x="6300" y="-2350"/><use xlink:href="#IO7cZ_6xP8pP5Nof3WkU_pad-1" x="5220" y="-3330"/><use xlink:href="#IO7cZ_6xP8pP5Nof3WkU_pad-1" x="5220" y="-3430"/><use xlink:href="#IO7cZ_6xP8pP5Nof3WkU_pad-1" x="5220" y="-3530"/><use xlink:href="#IO7cZ_6xP8pP5Nof3WkU_pad-1" x="5220" y="-3630"/><use xlink:href="#IO7cZ_6xP8pP5Nof3WkU_pad-1" x="5220" y="-3730"/><use xlink:href="#IO7cZ_6xP8pP5Nof3WkU_pad-1" x="5220" y="-3830"/><use xlink:href="#IO7cZ_6xP8pP5Nof3WkU_pad-1" x="5220" y="-3930"/><use xlink:href="#IO7cZ_6xP8pP5Nof3WkU_pad-1" x="5220" y="-4030"/><use xlink:href="#IO7cZ_6xP8pP5Nof3WkU_pad-1" x="5220" y="-4130"/><use xlink:href="#IO7cZ_6xP8pP5Nof3WkU_pad-1" x="5220" y="-4230"/><use xlink:href="#IO7cZ_6xP8pP5Nof3WkU_pad-1" x="6200" y="-2750"/><use xlink:href="#IO7cZ_6xP8pP5Nof3WkU_pad-1" x="5930" y="-1670"/><use xlink:href="#IO7cZ_6xP8pP5Nof3WkU_pad-1" x="5900" y="-2250"/><use xlink:href="#IO7cZ_6xP8pP5Nof3WkU_pad-1" x="5800" y="-2850"/><use xlink:href="#IO7cZ_6xP8pP5Nof3WkU_pad-1" x="5830" y="-1670"/><use xlink:href="#IO7cZ_6xP8pP5Nof3WkU_pad-1" x="6400" y="-2150"/><use xlink:href="#IO7cZ_6xP8pP5Nof3WkU_pad-1" x="6400" y="-2750"/><use xlink:href="#IO7cZ_6xP8pP5Nof3WkU_pad-1" x="5430" y="-1570"/><use xlink:href="#IO7cZ_6xP8pP5Nof3WkU_pad-1" x="5700" y="-2150"/><use xlink:href="#IO7cZ_6xP8pP5Nof3WkU_pad-1" x="6570" y="-4410"/><use xlink:href="#IO7cZ_6xP8pP5Nof3WkU_pad-1" x="6570" y="-4510"/><use xlink:href="#IO7cZ_6xP8pP5Nof3WkU_pad-1" x="6570" y="-4610"/><use xlink:href="#IO7cZ_6xP8pP5Nof3WkU_pad-1" x="6570" y="-4710"/><use xlink:href="#IO7cZ_6xP8pP5Nof3WkU_pad-1" x="6570" y="-4810"/><use xlink:href="#IO7cZ_6xP8pP5Nof3WkU_pad-1" x="6570" y="-4910"/><use xlink:href="#IO7cZ_6xP8pP5Nof3WkU_pad-1" x="6570" y="-5010"/><use xlink:href="#IO7cZ_6xP8pP5Nof3WkU_pad-1" x="6570" y="-5110"/><use xlink:href="#IO7cZ_6xP8pP5Nof3WkU_pad-1" x="6570" y="-5210"/><use xlink:href="#IO7cZ_6xP8pP5Nof3WkU_pad-1" x="6570" y="-5310"/><use xlink:href="#IO7cZ_6xP8pP5Nof3WkU_pad-1" x="5330" y="-1470"/><use xlink:href="#IO7cZ_6xP8pP5Nof3WkU_pad-1" x="6300" y="-2050"/><use xlink:href="#IO7cZ_6xP8pP5Nof3WkU_pad-1" x="6200" y="-2050"/><use xlink:href="#IO7cZ_6xP8pP5Nof3WkU_pad-1" x="6100" y="-1850"/><use xlink:href="#IO7cZ_6xP8pP5Nof3WkU_pad-1" x="6400" y="-2650"/><use xlink:href="#IO7cZ_6xP8pP5Nof3WkU_pad-1" x="6130" y="-1470"/><use xlink:href="#IO7cZ_6xP8pP5Nof3WkU_pad-1" x="6600" y="-1850"/><use xlink:href="#IO7cZ_6xP8pP5Nof3WkU_pad-1" x="6500" y="-2650"/><use xlink:href="#IO7cZ_6xP8pP5Nof3WkU_pad-1" x="5400" y="-1950"/><use xlink:href="#IO7cZ_6xP8pP5Nof3WkU_pad-1" x="5400" y="-2750"/><use xlink:href="#IO7cZ_6xP8pP5Nof3WkU_pad-1" x="6000" y="-2550"/><use xlink:href="#IO7cZ_6xP8pP5Nof3WkU_pad-1" x="6200" y="-3150"/><use xlink:href="#IO7cZ_6xP8pP5Nof3WkU_pad-1" x="6500" y="-1850"/><use xlink:href="#IO7cZ_6xP8pP5Nof3WkU_pad-1" x="6100" y="-2550"/><use xlink:href="#IO7cZ_6xP8pP5Nof3WkU_pad-1" x="5900" y="-3150"/><use xlink:href="#IO7cZ_6xP8pP5Nof3WkU_pad-1" x="6400" y="-2450"/><use xlink:href="#IO7cZ_6xP8pP5Nof3WkU_pad-2" x="5534.3" y="-3396"/><use xlink:href="#IO7cZ_6xP8pP5Nof3WkU_pad-2" x="5534.3" y="-3496"/><use xlink:href="#IO7cZ_6xP8pP5Nof3WkU_pad-2" x="5534.3" y="-3596"/><use xlink:href="#IO7cZ_6xP8pP5Nof3WkU_pad-2" x="5534.3" y="-3696"/><use xlink:href="#IO7cZ_6xP8pP5Nof3WkU_pad-2" x="5534.3" y="-3796"/><use xlink:href="#IO7cZ_6xP8pP5Nof3WkU_pad-2" x="5534.3" y="-3896"/><use xlink:href="#IO7cZ_6xP8pP5Nof3WkU_pad-2" x="5534.3" y="-3996"/><use xlink:href="#IO7cZ_6xP8pP5Nof3WkU_pad-2" x="5534.3" y="-4096"/><use xlink:href="#IO7cZ_6xP8pP5Nof3WkU_pad-2" x="5534.3" y="-4196"/><use xlink:href="#IO7cZ_6xP8pP5Nof3WkU_pad-2" x="5534.3" y="-4296"/><use xlink:href="#IO7cZ_6xP8pP5Nof3WkU_pad-2" x="5534.3" y="-4396"/><use xlink:href="#IO7cZ_6xP8pP5Nof3WkU_pad-2" x="5534.3" y="-4496"/><use xlink:href="#IO7cZ_6xP8pP5Nof3WkU_pad-2" x="5534.3" y="-4596"/><use xlink:href="#IO7cZ_6xP8pP5Nof3WkU_pad-2" x="5534.3" y="-4696"/><use xlink:href="#IO7cZ_6xP8pP5Nof3WkU_pad-2" x="5534.3" y="-4796"/><use xlink:href="#IO7cZ_6xP8pP5Nof3WkU_pad-2" x="5534.3" y="-4896"/><use xlink:href="#IO7cZ_6xP8pP5Nof3WkU_pad-2" x="5534.3" y="-4996"/><use xlink:href="#IO7cZ_6xP8pP5Nof3WkU_pad-2" x="5534.3" y="-5096"/><use xlink:href="#IO7cZ_6xP8pP5Nof3WkU_pad-2" x="5534.3" y="-5196"/><use xlink:href="#IO7cZ_6xP8pP5Nof3WkU_pad-2" x="5534.3" y="-5296"/><use xlink:href="#IO7cZ_6xP8pP5Nof3WkU_pad-2" x="5784.3" y="-5286.9"/><use xlink:href="#IO7cZ_6xP8pP5Nof3WkU_pad-2" x="5884.3" y="-5286.9"/><use xlink:href="#IO7cZ_6xP8pP5Nof3WkU_pad-2" x="5984.3" y="-5286.9"/><use xlink:href="#IO7cZ_6xP8pP5Nof3WkU_pad-2" x="6234.3" y="-3396"/><use xlink:href="#IO7cZ_6xP8pP5Nof3WkU_pad-2" x="6234.3" y="-3496"/><use xlink:href="#IO7cZ_6xP8pP5Nof3WkU_pad-2" x="6234.3" y="-3596"/><use xlink:href="#IO7cZ_6xP8pP5Nof3WkU_pad-2" x="6234.3" y="-3696"/><use xlink:href="#IO7cZ_6xP8pP5Nof3WkU_pad-2" x="6234.3" y="-3796"/><use xlink:href="#IO7cZ_6xP8pP5Nof3WkU_pad-2" x="6234.3" y="-3896"/><use xlink:href="#IO7cZ_6xP8pP5Nof3WkU_pad-2" x="6234.3" y="-3996"/><use xlink:href="#IO7cZ_6xP8pP5Nof3WkU_pad-2" x="6234.3" y="-4096"/><use xlink:href="#IO7cZ_6xP8pP5Nof3WkU_pad-2" x="6234.3" y="-4196"/><use xlink:href="#IO7cZ_6xP8pP5Nof3WkU_pad-2" x="6234.3" y="-4296"/><use xlink:href="#IO7cZ_6xP8pP5Nof3WkU_pad-2" x="6234.3" y="-4396"/><use xlink:href="#IO7cZ_6xP8pP5Nof3WkU_pad-2" x="6234.3" y="-4496"/><use xlink:href="#IO7cZ_6xP8pP5Nof3WkU_pad-2" x="6234.3" y="-4596"/><use xlink:href="#IO7cZ_6xP8pP5Nof3WkU_pad-2" x="6234.3" y="-4696"/><use xlink:href="#IO7cZ_6xP8pP5Nof3WkU_pad-2" x="6234.3" y="-4796"/><use xlink:href="#IO7cZ_6xP8pP5Nof3WkU_pad-2" x="6234.3" y="-4896"/><use xlink:href="#IO7cZ_6xP8pP5Nof3WkU_pad-2" x="6234.3" y="-4996"/><use xlink:href="#IO7cZ_6xP8pP5Nof3WkU_pad-2" x="6234.3" y="-5096"/><use xlink:href="#IO7cZ_6xP8pP5Nof3WkU_pad-2" x="6234.3" y="-5196"/><use xlink:href="#IO7cZ_6xP8pP5Nof3WkU_pad-2" x="6234.3" y="-5296"/><use xlink:href="#IO7cZ_6xP8pP5Nof3WkU_pad-3" x="6940" y="-1390"/><use xlink:href="#IO7cZ_6xP8pP5Nof3WkU_pad-3" x="6940" y="-1590"/><use xlink:href="#IO7cZ_6xP8pP5Nof3WkU_pad-3" x="6940" y="-1790"/><use xlink:href="#IO7cZ_6xP8pP5Nof3WkU_pad-3" x="6940" y="-1990"/><use xlink:href="#IO7cZ_6xP8pP5Nof3WkU_pad-3" x="6940" y="-2190"/><use xlink:href="#IO7cZ_6xP8pP5Nof3WkU_pad-3" x="6940" y="-2390"/><use xlink:href="#IO7cZ_6xP8pP5Nof3WkU_pad-3" x="6940" y="-2590"/><use xlink:href="#IO7cZ_6xP8pP5Nof3WkU_pad-3" x="6940" y="-2790"/><use xlink:href="#IO7cZ_6xP8pP5Nof3WkU_pad-3" x="6940" y="-2990"/><use xlink:href="#IO7cZ_6xP8pP5Nof3WkU_pad-3" x="6940" y="-3190"/><use xlink:href="#IO7cZ_6xP8pP5Nof3WkU_pad-3" x="6350" y="-1510"/><use xlink:href="#IO7cZ_6xP8pP5Nof3WkU_pad-3" x="6550" y="-1510"/><use xlink:href="#IO7cZ_6xP8pP5Nof3WkU_pad-3" x="4860" y="-3460"/><use xlink:href="#IO7cZ_6xP8pP5Nof3WkU_pad-3" x="4860" y="-3660"/><use xlink:href="#IO7cZ_6xP8pP5Nof3WkU_pad-3" x="4860" y="-3860"/><use xlink:href="#IO7cZ_6xP8pP5Nof3WkU_pad-3" x="4860" y="-4060"/><use xlink:href="#IO7cZ_6xP8pP5Nof3WkU_pad-3" x="4860" y="-4260"/><use xlink:href="#IO7cZ_6xP8pP5Nof3WkU_pad-3" x="4860" y="-4460"/><use xlink:href="#IO7cZ_6xP8pP5Nof3WkU_pad-3" x="4860" y="-4660"/><use xlink:href="#IO7cZ_6xP8pP5Nof3WkU_pad-3" x="4860" y="-4860"/><use xlink:href="#IO7cZ_6xP8pP5Nof3WkU_pad-3" x="4860" y="-5060"/><use xlink:href="#IO7cZ_6xP8pP5Nof3WkU_pad-3" x="4860" y="-5260"/><use xlink:href="#IO7cZ_6xP8pP5Nof3WkU_pad-3" x="4860" y="-1380"/><use xlink:href="#IO7cZ_6xP8pP5Nof3WkU_pad-3" x="4860" y="-1580"/><use xlink:href="#IO7cZ_6xP8pP5Nof3WkU_pad-3" x="4860" y="-1780"/><use xlink:href="#IO7cZ_6xP8pP5Nof3WkU_pad-3" x="4860" y="-1980"/><use xlink:href="#IO7cZ_6xP8pP5Nof3WkU_pad-3" x="4860" y="-2180"/><use xlink:href="#IO7cZ_6xP8pP5Nof3WkU_pad-3" x="4860" y="-2380"/><use xlink:href="#IO7cZ_6xP8pP5Nof3WkU_pad-3" x="4860" y="-2580"/><use xlink:href="#IO7cZ_6xP8pP5Nof3WkU_pad-3" x="4860" y="-2780"/><use xlink:href="#IO7cZ_6xP8pP5Nof3WkU_pad-3" x="4860" y="-2980"/><use xlink:href="#IO7cZ_6xP8pP5Nof3WkU_pad-3" x="4860" y="-3180"/><use xlink:href="#IO7cZ_6xP8pP5Nof3WkU_pad-3" x="6940" y="-3460"/><use xlink:href="#IO7cZ_6xP8pP5Nof3WkU_pad-3" x="6940" y="-3660"/><use xlink:href="#IO7cZ_6xP8pP5Nof3WkU_pad-3" x="6940" y="-3860"/><use xlink:href="#IO7cZ_6xP8pP5Nof3WkU_pad-3" x="6940" y="-4060"/><use xlink:href="#IO7cZ_6xP8pP5Nof3WkU_pad-3" x="6940" y="-4260"/><use xlink:href="#IO7cZ_6xP8pP5Nof3WkU_pad-3" x="6940" y="-4460"/><use xlink:href="#IO7cZ_6xP8pP5Nof3WkU_pad-3" x="6940" y="-4660"/><use xlink:href="#IO7cZ_6xP8pP5Nof3WkU_pad-3" x="6940" y="-4860"/><use xlink:href="#IO7cZ_6xP8pP5Nof3WkU_pad-3" x="6940" y="-5060"/><use xlink:href="#IO7cZ_6xP8pP5Nof3WkU_pad-3" x="6940" y="-5260"/></g></svg>