<svg version="1.1" xmlns="http://www.w3.org/2000/svg" xmlns:xlink="http://www.w3.org/1999/xlink" stroke-linecap="round" stroke-linejoin="round" stroke-width="0" fill-rule="evenodd" width="13.578572mm" height="4.96mm" viewBox="142538.904 -107207.38 13578.572 4960" id="A5g4ooKwiCzGMd6Bs1_x"><g transform="translate(0,-209454.76) scale(1,-1)" fill="currentColor" stroke="currentColor"><path d="M 156042.476 -107132.38 156042.476 -106132.38 155661.523 -106132.38 155566.285 -106180 155518.666 -106227.619 155471.047 -106322.857 155471.047 -106465.714 155518.666 -106560.952 155566.285 -106608.571 155661.523 -106656.19 156042.476 -106656.19 M 155042.476 -107132.38 155042.476 -106132.38 M 153471.047 -106608.571 153328.19 -106656.19 153280.571 -106703.809 153232.952 -106799.047 153232.952 -106941.904 153280.571 -107037.142 153328.19 -107084.761 153423.428 -107132.38 153804.38 -107132.38 153804.38 -106132.38 153471.047 -106132.38 153375.809 -106180 153328.19 -106227.619 153280.571 -106322.857 153280.571 -106418.095 153328.19 -106513.333 153375.809 -106560.952 153471.047 -106608.571 153804.38 -106608.571 M 152232.952 -107132.38 152566.285 -106656.19 M 152804.38 -107132.38 152804.38 -106132.38 152423.428 -106132.38 152328.19 -106180 152280.571 -106227.619 152232.952 -106322.857 152232.952 -106465.714 152280.571 -106560.952 152328.19 -106608.571 152423.428 -106656.19 152804.38 -106656.19 M 151804.38 -106608.571 151471.047 -106608.571 M 151328.19 -107132.38 151804.38 -107132.38 151804.38 -106132.38 151328.19 -106132.38 M 150947.238 -106846.666 150471.047 -106846.666 M 151042.476 -107132.38 150709.142 -106132.38 150375.809 -107132.38 M 150042.476 -107132.38 150042.476 -106132.38 M 149471.047 -107132.38 149899.619 -106560.952 M 149471.047 -106132.38 150042.476 -106703.809 M 148852 -106132.38 148661.523 -106132.38 148566.285 -106180 148471.047 -106275.238 148423.428 -106465.714 148423.428 -106799.047 148471.047 -106989.523 148566.285 -107084.761 148661.523 -107132.38 148852 -107132.38 148947.238 -107084.761 149042.476 -106989.523 149090.095 -106799.047 149090.095 -106465.714 149042.476 -106275.238 148947.238 -106180 148852 -106132.38 M 147994.857 -106132.38 147994.857 -106941.904 147947.238 -107037.142 147899.619 -107084.761 147804.38 -107132.38 147613.904 -107132.38 147518.666 -107084.761 147471.047 -107037.142 147423.428 -106941.904 147423.428 -106132.38 M 147090.095 -106132.38 146518.666 -106132.38 M 146804.38 -107132.38 146804.38 -106132.38 M 145566.285 -106132.38 145232.952 -107132.38 144899.619 -106132.38 M 144042.476 -107132.38 144613.904 -107132.38 M 144328.19 -107132.38 144328.19 -106132.38 144423.428 -106275.238 144518.666 -106370.476 144613.904 -106418.095 M 143613.904 -107037.142 143566.285 -107084.761 143613.904 -107132.38 143661.523 -107084.761 143613.904 -107037.142 143613.904 -107132.38 M 142947.238 -106132.38 142852 -106132.38 142756.761 -106180 142709.142 -106227.619 142661.523 -106322.857 142613.904 -106513.333 142613.904 -106751.428 142661.523 -106941.904 142709.142 -107037.142 142756.761 -107084.761 142852 -107132.38 142947.238 -107132.38 143042.476 -107084.761 143090.095 -107037.142 143137.714 -106941.904 143185.333 -106751.428 143185.333 -106513.333 143137.714 -106322.857 143090.095 -106227.619 143042.476 -106180 142947.238 -106132.38 M 152717.047 -103322.38 152717.047 -102322.38 152383.714 -103036.666 152050.38 -102322.38 152050.38 -103322.38 M 151574.19 -103322.38 151574.19 -102322.38 M 151002.761 -103322.38 151431.333 -102750.952 M 151002.761 -102322.38 151574.19 -102893.809 M 150574.19 -103322.38 150574.19 -102322.38 150240.857 -103036.666 149907.523 -102322.38 149907.523 -103322.38 M 149431.333 -102798.571 149098 -102798.571 M 148955.142 -103322.38 149431.333 -103322.38 149431.333 -102322.38 148955.142 -102322.38 M 148526.571 -103227.142 148478.952 -103274.761 148526.571 -103322.38 148574.19 -103274.761 148526.571 -103227.142 148526.571 -103322.38 M 147859.904 -102322.38 147669.428 -102322.38 147574.19 -102370 147478.952 -102465.238 147431.333 -102655.714 147431.333 -102989.047 147478.952 -103179.523 147574.19 -103274.761 147669.428 -103322.38 147859.904 -103322.38 147955.142 -103274.761 148050.38 -103179.523 148098 -102989.047 148098 -102655.714 148050.38 -102465.238 147955.142 -102370 147859.904 -102322.38 M 146431.333 -103322.38 146764.666 -102846.19 M 147002.761 -103322.38 147002.761 -102322.38 146621.809 -102322.38 146526.571 -102370 146478.952 -102417.619 146431.333 -102512.857 146431.333 -102655.714 146478.952 -102750.952 146526.571 -102798.571 146621.809 -102846.19 147002.761 -102846.19 M 145478.952 -102370 145574.19 -102322.38 145717.047 -102322.38 145859.904 -102370 145955.142 -102465.238 146002.761 -102560.476 146050.38 -102750.952 146050.38 -102893.809 146002.761 -103084.285 145955.142 -103179.523 145859.904 -103274.761 145717.047 -103322.38 145621.809 -103322.38 145478.952 -103274.761 145431.333 -103227.142 145431.333 -102893.809 145621.809 -102893.809" fill="none" stroke-width="150"/></g></svg>