<svg version="1.1" xmlns="http://www.w3.org/2000/svg" xmlns:xlink="http://www.w3.org/1999/xlink" stroke-linecap="round" stroke-linejoin="round" stroke-width="0" fill-rule="evenodd" width="55.432mm" height="102.026mm" viewBox="122144 -135774 55432 102026" id="ZN6W83x0IkivuljJpcN0"><defs><rect x="-900" y="-900" width="1800" height="1800" rx="900" ry="900" id="ZN6W83x0IkivuljJpcN0_pad-10"/><rect x="-900" y="-900" width="1800" height="1800" id="ZN6W83x0IkivuljJpcN0_pad-11"/><rect x="-950" y="-950" width="1900" height="1900" rx="950" ry="950" id="ZN6W83x0IkivuljJpcN0_pad-12"/><rect x="-800" y="-800" width="1600" height="1600" rx="800" ry="800" id="ZN6W83x0IkivuljJpcN0_pad-13"/><circle cx="0" cy="0" r="1050" id="ZN6W83x0IkivuljJpcN0_pad-14"/><rect x="-1300" y="-1300" width="2600" height="2600" id="ZN6W83x0IkivuljJpcN0_pad-15"/><circle cx="0" cy="0" r="1300" id="ZN6W83x0IkivuljJpcN0_pad-16"/></defs><g transform="translate(0,-169522) scale(1,-1)" fill="currentColor" stroke="currentColor"><use xlink:href="#ZN6W83x0IkivuljJpcN0_pad-10" x="140572" y="-86258.001"/><use xlink:href="#ZN6W83x0IkivuljJpcN0_pad-10" x="140572" y="-88798.001"/><use xlink:href="#ZN6W83x0IkivuljJpcN0_pad-11" x="140572" y="-91338.001"/><use xlink:href="#ZN6W83x0IkivuljJpcN0_pad-10" x="140572" y="-93878.001"/><use xlink:href="#ZN6W83x0IkivuljJpcN0_pad-10" x="140572" y="-96418.001"/><use xlink:href="#ZN6W83x0IkivuljJpcN0_pad-10" x="140572" y="-98958.001"/><use xlink:href="#ZN6W83x0IkivuljJpcN0_pad-10" x="140572" y="-101498.001"/><use xlink:href="#ZN6W83x0IkivuljJpcN0_pad-11" x="140572" y="-104038.001"/><use xlink:href="#ZN6W83x0IkivuljJpcN0_pad-10" x="140572" y="-106578.001"/><use xlink:href="#ZN6W83x0IkivuljJpcN0_pad-10" x="140572" y="-109118.001"/><use xlink:href="#ZN6W83x0IkivuljJpcN0_pad-10" x="140572" y="-111658.001"/><use xlink:href="#ZN6W83x0IkivuljJpcN0_pad-10" x="140572" y="-114198.001"/><use xlink:href="#ZN6W83x0IkivuljJpcN0_pad-11" x="140572" y="-116738.001"/><use xlink:href="#ZN6W83x0IkivuljJpcN0_pad-10" x="140572" y="-119278.001"/><use xlink:href="#ZN6W83x0IkivuljJpcN0_pad-10" x="140572" y="-121818.001"/><use xlink:href="#ZN6W83x0IkivuljJpcN0_pad-10" x="140572" y="-124358.001"/><use xlink:href="#ZN6W83x0IkivuljJpcN0_pad-10" x="140572" y="-126898.001"/><use xlink:href="#ZN6W83x0IkivuljJpcN0_pad-11" x="140572" y="-129438.001"/><use xlink:href="#ZN6W83x0IkivuljJpcN0_pad-10" x="140572" y="-131978.001"/><use xlink:href="#ZN6W83x0IkivuljJpcN0_pad-10" x="140572" y="-134518.001"/><use xlink:href="#ZN6W83x0IkivuljJpcN0_pad-10" x="158352" y="-134518.001"/><use xlink:href="#ZN6W83x0IkivuljJpcN0_pad-10" x="158352" y="-131978.001"/><use xlink:href="#ZN6W83x0IkivuljJpcN0_pad-11" x="158352" y="-129438.001"/><use xlink:href="#ZN6W83x0IkivuljJpcN0_pad-10" x="158352" y="-126898.001"/><use xlink:href="#ZN6W83x0IkivuljJpcN0_pad-10" x="158352" y="-124358.001"/><use xlink:href="#ZN6W83x0IkivuljJpcN0_pad-10" x="158352" y="-121818.001"/><use xlink:href="#ZN6W83x0IkivuljJpcN0_pad-10" x="158352" y="-119278.001"/><use xlink:href="#ZN6W83x0IkivuljJpcN0_pad-11" x="158352" y="-116738.001"/><use xlink:href="#ZN6W83x0IkivuljJpcN0_pad-10" x="158352" y="-114198.001"/><use xlink:href="#ZN6W83x0IkivuljJpcN0_pad-10" x="158352" y="-111658.001"/><use xlink:href="#ZN6W83x0IkivuljJpcN0_pad-10" x="158352" y="-109118.001"/><use xlink:href="#ZN6W83x0IkivuljJpcN0_pad-10" x="158352" y="-106578.001"/><use xlink:href="#ZN6W83x0IkivuljJpcN0_pad-11" x="158352" y="-104038.001"/><use xlink:href="#ZN6W83x0IkivuljJpcN0_pad-10" x="158352" y="-101498.001"/><use xlink:href="#ZN6W83x0IkivuljJpcN0_pad-10" x="158352" y="-98958.001"/><use xlink:href="#ZN6W83x0IkivuljJpcN0_pad-10" x="158352" y="-96418.001"/><use xlink:href="#ZN6W83x0IkivuljJpcN0_pad-10" x="158352" y="-93878.001"/><use xlink:href="#ZN6W83x0IkivuljJpcN0_pad-11" x="158352" y="-91338.001"/><use xlink:href="#ZN6W83x0IkivuljJpcN0_pad-10" x="158352" y="-88798.001"/><use xlink:href="#ZN6W83x0IkivuljJpcN0_pad-10" x="158352" y="-86258.001"/><use xlink:href="#ZN6W83x0IkivuljJpcN0_pad-12" x="146737" y="-86388.001"/><use xlink:href="#ZN6W83x0IkivuljJpcN0_pad-12" x="152187" y="-86388.001"/><use xlink:href="#ZN6W83x0IkivuljJpcN0_pad-13" x="147037" y="-89418.001"/><use xlink:href="#ZN6W83x0IkivuljJpcN0_pad-13" x="151887" y="-89418.001"/><use xlink:href="#ZN6W83x0IkivuljJpcN0_pad-10" x="146922" y="-134288.001"/><use xlink:href="#ZN6W83x0IkivuljJpcN0_pad-11" x="149462" y="-134288.001"/><use xlink:href="#ZN6W83x0IkivuljJpcN0_pad-10" x="152002" y="-134288.001"/><use xlink:href="#ZN6W83x0IkivuljJpcN0_pad-14" x="155702" y="-42418"/><use xlink:href="#ZN6W83x0IkivuljJpcN0_pad-14" x="153162" y="-42418"/><use xlink:href="#ZN6W83x0IkivuljJpcN0_pad-14" x="150622" y="-42418"/><use xlink:href="#ZN6W83x0IkivuljJpcN0_pad-14" x="148082" y="-42418"/><use xlink:href="#ZN6W83x0IkivuljJpcN0_pad-14" x="145542" y="-42418"/><use xlink:href="#ZN6W83x0IkivuljJpcN0_pad-14" x="143002" y="-42418"/><use xlink:href="#ZN6W83x0IkivuljJpcN0_pad-14" x="140462" y="-42418"/><use xlink:href="#ZN6W83x0IkivuljJpcN0_pad-14" x="137922" y="-42418"/><use xlink:href="#ZN6W83x0IkivuljJpcN0_pad-14" x="135382" y="-42418"/><use xlink:href="#ZN6W83x0IkivuljJpcN0_pad-14" x="132842" y="-42418"/><use xlink:href="#ZN6W83x0IkivuljJpcN0_pad-14" x="155702" y="-39878"/><use xlink:href="#ZN6W83x0IkivuljJpcN0_pad-14" x="153162" y="-39878"/><use xlink:href="#ZN6W83x0IkivuljJpcN0_pad-14" x="150622" y="-39878"/><use xlink:href="#ZN6W83x0IkivuljJpcN0_pad-14" x="148082" y="-39878"/><use xlink:href="#ZN6W83x0IkivuljJpcN0_pad-14" x="145542" y="-39878"/><use xlink:href="#ZN6W83x0IkivuljJpcN0_pad-14" x="143002" y="-39878"/><use xlink:href="#ZN6W83x0IkivuljJpcN0_pad-14" x="140462" y="-39878"/><use xlink:href="#ZN6W83x0IkivuljJpcN0_pad-14" x="137922" y="-39878"/><use xlink:href="#ZN6W83x0IkivuljJpcN0_pad-14" x="135382" y="-39878"/><use xlink:href="#ZN6W83x0IkivuljJpcN0_pad-14" x="132842" y="-39878"/><use xlink:href="#ZN6W83x0IkivuljJpcN0_pad-14" x="155702" y="-37338"/><use xlink:href="#ZN6W83x0IkivuljJpcN0_pad-14" x="153162" y="-37338"/><use xlink:href="#ZN6W83x0IkivuljJpcN0_pad-14" x="150622" y="-37338"/><use xlink:href="#ZN6W83x0IkivuljJpcN0_pad-14" x="148082" y="-37338"/><use xlink:href="#ZN6W83x0IkivuljJpcN0_pad-14" x="145542" y="-37338"/><use xlink:href="#ZN6W83x0IkivuljJpcN0_pad-14" x="143002" y="-37338"/><use xlink:href="#ZN6W83x0IkivuljJpcN0_pad-14" x="140462" y="-37338"/><use xlink:href="#ZN6W83x0IkivuljJpcN0_pad-14" x="137922" y="-37338"/><use xlink:href="#ZN6W83x0IkivuljJpcN0_pad-14" x="135382" y="-37338"/><use xlink:href="#ZN6W83x0IkivuljJpcN0_pad-14" x="132842" y="-37338"/><use xlink:href="#ZN6W83x0IkivuljJpcN0_pad-14" x="155702" y="-34798"/><use xlink:href="#ZN6W83x0IkivuljJpcN0_pad-14" x="153162" y="-34798"/><use xlink:href="#ZN6W83x0IkivuljJpcN0_pad-14" x="150622" y="-34798"/><use xlink:href="#ZN6W83x0IkivuljJpcN0_pad-14" x="148082" y="-34798"/><use xlink:href="#ZN6W83x0IkivuljJpcN0_pad-14" x="145542" y="-34798"/><use xlink:href="#ZN6W83x0IkivuljJpcN0_pad-14" x="143002" y="-34798"/><use xlink:href="#ZN6W83x0IkivuljJpcN0_pad-14" x="140462" y="-34798"/><use xlink:href="#ZN6W83x0IkivuljJpcN0_pad-14" x="137922" y="-34798"/><use xlink:href="#ZN6W83x0IkivuljJpcN0_pad-14" x="135382" y="-34798"/><use xlink:href="#ZN6W83x0IkivuljJpcN0_pad-14" x="132842" y="-34798"/><use xlink:href="#ZN6W83x0IkivuljJpcN0_pad-14" x="167640" y="-80010"/><use xlink:href="#ZN6W83x0IkivuljJpcN0_pad-14" x="165100" y="-80010"/><use xlink:href="#ZN6W83x0IkivuljJpcN0_pad-14" x="162560" y="-80010"/><use xlink:href="#ZN6W83x0IkivuljJpcN0_pad-14" x="160020" y="-80010"/><use xlink:href="#ZN6W83x0IkivuljJpcN0_pad-14" x="157480" y="-80010"/><use xlink:href="#ZN6W83x0IkivuljJpcN0_pad-14" x="154940" y="-80010"/><use xlink:href="#ZN6W83x0IkivuljJpcN0_pad-14" x="152400" y="-80010"/><use xlink:href="#ZN6W83x0IkivuljJpcN0_pad-14" x="149860" y="-80010"/><use xlink:href="#ZN6W83x0IkivuljJpcN0_pad-14" x="147320" y="-80010"/><use xlink:href="#ZN6W83x0IkivuljJpcN0_pad-14" x="144780" y="-80010"/><use xlink:href="#ZN6W83x0IkivuljJpcN0_pad-14" x="142240" y="-80010"/><use xlink:href="#ZN6W83x0IkivuljJpcN0_pad-14" x="139700" y="-80010"/><use xlink:href="#ZN6W83x0IkivuljJpcN0_pad-14" x="137160" y="-80010"/><use xlink:href="#ZN6W83x0IkivuljJpcN0_pad-14" x="134620" y="-80010"/><use xlink:href="#ZN6W83x0IkivuljJpcN0_pad-14" x="132080" y="-80010"/><use xlink:href="#ZN6W83x0IkivuljJpcN0_pad-14" x="167640" y="-77470"/><use xlink:href="#ZN6W83x0IkivuljJpcN0_pad-14" x="165100" y="-77470"/><use xlink:href="#ZN6W83x0IkivuljJpcN0_pad-14" x="162560" y="-77470"/><use xlink:href="#ZN6W83x0IkivuljJpcN0_pad-14" x="160020" y="-77470"/><use xlink:href="#ZN6W83x0IkivuljJpcN0_pad-14" x="157480" y="-77470"/><use xlink:href="#ZN6W83x0IkivuljJpcN0_pad-14" x="154940" y="-77470"/><use xlink:href="#ZN6W83x0IkivuljJpcN0_pad-14" x="152400" y="-77470"/><use xlink:href="#ZN6W83x0IkivuljJpcN0_pad-14" x="149860" y="-77470"/><use xlink:href="#ZN6W83x0IkivuljJpcN0_pad-14" x="147320" y="-77470"/><use xlink:href="#ZN6W83x0IkivuljJpcN0_pad-14" x="144780" y="-77470"/><use xlink:href="#ZN6W83x0IkivuljJpcN0_pad-14" x="142240" y="-77470"/><use xlink:href="#ZN6W83x0IkivuljJpcN0_pad-14" x="139700" y="-77470"/><use xlink:href="#ZN6W83x0IkivuljJpcN0_pad-14" x="137160" y="-77470"/><use xlink:href="#ZN6W83x0IkivuljJpcN0_pad-14" x="134620" y="-77470"/><use xlink:href="#ZN6W83x0IkivuljJpcN0_pad-14" x="132080" y="-77470"/><use xlink:href="#ZN6W83x0IkivuljJpcN0_pad-14" x="167640" y="-74930"/><use xlink:href="#ZN6W83x0IkivuljJpcN0_pad-14" x="165100" y="-74930"/><use xlink:href="#ZN6W83x0IkivuljJpcN0_pad-14" x="162560" y="-74930"/><use xlink:href="#ZN6W83x0IkivuljJpcN0_pad-14" x="160020" y="-74930"/><use xlink:href="#ZN6W83x0IkivuljJpcN0_pad-14" x="157480" y="-74930"/><use xlink:href="#ZN6W83x0IkivuljJpcN0_pad-14" x="154940" y="-74930"/><use xlink:href="#ZN6W83x0IkivuljJpcN0_pad-14" x="152400" y="-74930"/><use xlink:href="#ZN6W83x0IkivuljJpcN0_pad-14" x="149860" y="-74930"/><use xlink:href="#ZN6W83x0IkivuljJpcN0_pad-14" x="147320" y="-74930"/><use xlink:href="#ZN6W83x0IkivuljJpcN0_pad-14" x="144780" y="-74930"/><use xlink:href="#ZN6W83x0IkivuljJpcN0_pad-14" x="142240" y="-74930"/><use xlink:href="#ZN6W83x0IkivuljJpcN0_pad-14" x="139700" y="-74930"/><use xlink:href="#ZN6W83x0IkivuljJpcN0_pad-14" x="137160" y="-74930"/><use xlink:href="#ZN6W83x0IkivuljJpcN0_pad-14" x="134620" y="-74930"/><use xlink:href="#ZN6W83x0IkivuljJpcN0_pad-14" x="132080" y="-74930"/><use xlink:href="#ZN6W83x0IkivuljJpcN0_pad-14" x="167640" y="-72390"/><use xlink:href="#ZN6W83x0IkivuljJpcN0_pad-14" x="165100" y="-72390"/><use xlink:href="#ZN6W83x0IkivuljJpcN0_pad-14" x="162560" y="-72390"/><use xlink:href="#ZN6W83x0IkivuljJpcN0_pad-14" x="160020" y="-72390"/><use xlink:href="#ZN6W83x0IkivuljJpcN0_pad-14" x="157480" y="-72390"/><use xlink:href="#ZN6W83x0IkivuljJpcN0_pad-14" x="154940" y="-72390"/><use xlink:href="#ZN6W83x0IkivuljJpcN0_pad-14" x="152400" y="-72390"/><use xlink:href="#ZN6W83x0IkivuljJpcN0_pad-14" x="149860" y="-72390"/><use xlink:href="#ZN6W83x0IkivuljJpcN0_pad-14" x="147320" y="-72390"/><use xlink:href="#ZN6W83x0IkivuljJpcN0_pad-14" x="144780" y="-72390"/><use xlink:href="#ZN6W83x0IkivuljJpcN0_pad-14" x="142240" y="-72390"/><use xlink:href="#ZN6W83x0IkivuljJpcN0_pad-14" x="139700" y="-72390"/><use xlink:href="#ZN6W83x0IkivuljJpcN0_pad-14" x="137160" y="-72390"/><use xlink:href="#ZN6W83x0IkivuljJpcN0_pad-14" x="134620" y="-72390"/><use xlink:href="#ZN6W83x0IkivuljJpcN0_pad-14" x="132080" y="-72390"/><use xlink:href="#ZN6W83x0IkivuljJpcN0_pad-14" x="167640" y="-69850"/><use xlink:href="#ZN6W83x0IkivuljJpcN0_pad-14" x="165100" y="-69850"/><use xlink:href="#ZN6W83x0IkivuljJpcN0_pad-14" x="162560" y="-69850"/><use xlink:href="#ZN6W83x0IkivuljJpcN0_pad-14" x="160020" y="-69850"/><use xlink:href="#ZN6W83x0IkivuljJpcN0_pad-14" x="157480" y="-69850"/><use xlink:href="#ZN6W83x0IkivuljJpcN0_pad-14" x="154940" y="-69850"/><use xlink:href="#ZN6W83x0IkivuljJpcN0_pad-14" x="152400" y="-69850"/><use xlink:href="#ZN6W83x0IkivuljJpcN0_pad-14" x="149860" y="-69850"/><use xlink:href="#ZN6W83x0IkivuljJpcN0_pad-14" x="147320" y="-69850"/><use xlink:href="#ZN6W83x0IkivuljJpcN0_pad-14" x="144780" y="-69850"/><use xlink:href="#ZN6W83x0IkivuljJpcN0_pad-14" x="142240" y="-69850"/><use xlink:href="#ZN6W83x0IkivuljJpcN0_pad-14" x="139700" y="-69850"/><use xlink:href="#ZN6W83x0IkivuljJpcN0_pad-14" x="137160" y="-69850"/><use xlink:href="#ZN6W83x0IkivuljJpcN0_pad-14" x="134620" y="-69850"/><use xlink:href="#ZN6W83x0IkivuljJpcN0_pad-14" x="132080" y="-69850"/><use xlink:href="#ZN6W83x0IkivuljJpcN0_pad-14" x="167640" y="-67310"/><use xlink:href="#ZN6W83x0IkivuljJpcN0_pad-14" x="165100" y="-67310"/><use xlink:href="#ZN6W83x0IkivuljJpcN0_pad-14" x="162560" y="-67310"/><use xlink:href="#ZN6W83x0IkivuljJpcN0_pad-14" x="160020" y="-67310"/><use xlink:href="#ZN6W83x0IkivuljJpcN0_pad-14" x="157480" y="-67310"/><use xlink:href="#ZN6W83x0IkivuljJpcN0_pad-14" x="154940" y="-67310"/><use xlink:href="#ZN6W83x0IkivuljJpcN0_pad-14" x="152400" y="-67310"/><use xlink:href="#ZN6W83x0IkivuljJpcN0_pad-14" x="149860" y="-67310"/><use xlink:href="#ZN6W83x0IkivuljJpcN0_pad-14" x="147320" y="-67310"/><use xlink:href="#ZN6W83x0IkivuljJpcN0_pad-14" x="144780" y="-67310"/><use xlink:href="#ZN6W83x0IkivuljJpcN0_pad-14" x="142240" y="-67310"/><use xlink:href="#ZN6W83x0IkivuljJpcN0_pad-14" x="139700" y="-67310"/><use xlink:href="#ZN6W83x0IkivuljJpcN0_pad-14" x="137160" y="-67310"/><use xlink:href="#ZN6W83x0IkivuljJpcN0_pad-14" x="134620" y="-67310"/><use xlink:href="#ZN6W83x0IkivuljJpcN0_pad-14" x="132080" y="-67310"/><use xlink:href="#ZN6W83x0IkivuljJpcN0_pad-14" x="167640" y="-64770"/><use xlink:href="#ZN6W83x0IkivuljJpcN0_pad-14" x="165100" y="-64770"/><use xlink:href="#ZN6W83x0IkivuljJpcN0_pad-14" x="162560" y="-64770"/><use xlink:href="#ZN6W83x0IkivuljJpcN0_pad-14" x="160020" y="-64770"/><use xlink:href="#ZN6W83x0IkivuljJpcN0_pad-14" x="157480" y="-64770"/><use xlink:href="#ZN6W83x0IkivuljJpcN0_pad-14" x="154940" y="-64770"/><use xlink:href="#ZN6W83x0IkivuljJpcN0_pad-14" x="152400" y="-64770"/><use xlink:href="#ZN6W83x0IkivuljJpcN0_pad-14" x="149860" y="-64770"/><use xlink:href="#ZN6W83x0IkivuljJpcN0_pad-14" x="147320" y="-64770"/><use xlink:href="#ZN6W83x0IkivuljJpcN0_pad-14" x="144780" y="-64770"/><use xlink:href="#ZN6W83x0IkivuljJpcN0_pad-14" x="142240" y="-64770"/><use xlink:href="#ZN6W83x0IkivuljJpcN0_pad-14" x="139700" y="-64770"/><use xlink:href="#ZN6W83x0IkivuljJpcN0_pad-14" x="137160" y="-64770"/><use xlink:href="#ZN6W83x0IkivuljJpcN0_pad-14" x="134620" y="-64770"/><use xlink:href="#ZN6W83x0IkivuljJpcN0_pad-14" x="132080" y="-64770"/><use xlink:href="#ZN6W83x0IkivuljJpcN0_pad-14" x="167640" y="-62230"/><use xlink:href="#ZN6W83x0IkivuljJpcN0_pad-14" x="165100" y="-62230"/><use xlink:href="#ZN6W83x0IkivuljJpcN0_pad-14" x="162560" y="-62230"/><use xlink:href="#ZN6W83x0IkivuljJpcN0_pad-14" x="160020" y="-62230"/><use xlink:href="#ZN6W83x0IkivuljJpcN0_pad-14" x="157480" y="-62230"/><use xlink:href="#ZN6W83x0IkivuljJpcN0_pad-14" x="154940" y="-62230"/><use xlink:href="#ZN6W83x0IkivuljJpcN0_pad-14" x="152400" y="-62230"/><use xlink:href="#ZN6W83x0IkivuljJpcN0_pad-14" x="149860" y="-62230"/><use xlink:href="#ZN6W83x0IkivuljJpcN0_pad-14" x="147320" y="-62230"/><use xlink:href="#ZN6W83x0IkivuljJpcN0_pad-14" x="144780" y="-62230"/><use xlink:href="#ZN6W83x0IkivuljJpcN0_pad-14" x="142240" y="-62230"/><use xlink:href="#ZN6W83x0IkivuljJpcN0_pad-14" x="139700" y="-62230"/><use xlink:href="#ZN6W83x0IkivuljJpcN0_pad-14" x="137160" y="-62230"/><use xlink:href="#ZN6W83x0IkivuljJpcN0_pad-14" x="134620" y="-62230"/><use xlink:href="#ZN6W83x0IkivuljJpcN0_pad-14" x="132080" y="-62230"/><use xlink:href="#ZN6W83x0IkivuljJpcN0_pad-14" x="167640" y="-59690"/><use xlink:href="#ZN6W83x0IkivuljJpcN0_pad-14" x="165100" y="-59690"/><use xlink:href="#ZN6W83x0IkivuljJpcN0_pad-14" x="162560" y="-59690"/><use xlink:href="#ZN6W83x0IkivuljJpcN0_pad-14" x="160020" y="-59690"/><use xlink:href="#ZN6W83x0IkivuljJpcN0_pad-14" x="157480" y="-59690"/><use xlink:href="#ZN6W83x0IkivuljJpcN0_pad-14" x="154940" y="-59690"/><use xlink:href="#ZN6W83x0IkivuljJpcN0_pad-14" x="152400" y="-59690"/><use xlink:href="#ZN6W83x0IkivuljJpcN0_pad-14" x="149860" y="-59690"/><use xlink:href="#ZN6W83x0IkivuljJpcN0_pad-14" x="147320" y="-59690"/><use xlink:href="#ZN6W83x0IkivuljJpcN0_pad-14" x="144780" y="-59690"/><use xlink:href="#ZN6W83x0IkivuljJpcN0_pad-14" x="142240" y="-59690"/><use xlink:href="#ZN6W83x0IkivuljJpcN0_pad-14" x="139700" y="-59690"/><use xlink:href="#ZN6W83x0IkivuljJpcN0_pad-14" x="137160" y="-59690"/><use xlink:href="#ZN6W83x0IkivuljJpcN0_pad-14" x="134620" y="-59690"/><use xlink:href="#ZN6W83x0IkivuljJpcN0_pad-14" x="132080" y="-59690"/><use xlink:href="#ZN6W83x0IkivuljJpcN0_pad-14" x="167640" y="-57150"/><use xlink:href="#ZN6W83x0IkivuljJpcN0_pad-14" x="165100" y="-57150"/><use xlink:href="#ZN6W83x0IkivuljJpcN0_pad-14" x="162560" y="-57150"/><use xlink:href="#ZN6W83x0IkivuljJpcN0_pad-14" x="160020" y="-57150"/><use xlink:href="#ZN6W83x0IkivuljJpcN0_pad-14" x="157480" y="-57150"/><use xlink:href="#ZN6W83x0IkivuljJpcN0_pad-14" x="154940" y="-57150"/><use xlink:href="#ZN6W83x0IkivuljJpcN0_pad-14" x="152400" y="-57150"/><use xlink:href="#ZN6W83x0IkivuljJpcN0_pad-14" x="149860" y="-57150"/><use xlink:href="#ZN6W83x0IkivuljJpcN0_pad-14" x="147320" y="-57150"/><use xlink:href="#ZN6W83x0IkivuljJpcN0_pad-14" x="144780" y="-57150"/><use xlink:href="#ZN6W83x0IkivuljJpcN0_pad-14" x="142240" y="-57150"/><use xlink:href="#ZN6W83x0IkivuljJpcN0_pad-14" x="139700" y="-57150"/><use xlink:href="#ZN6W83x0IkivuljJpcN0_pad-14" x="137160" y="-57150"/><use xlink:href="#ZN6W83x0IkivuljJpcN0_pad-14" x="134620" y="-57150"/><use xlink:href="#ZN6W83x0IkivuljJpcN0_pad-14" x="132080" y="-57150"/><use xlink:href="#ZN6W83x0IkivuljJpcN0_pad-14" x="167640" y="-54610"/><use xlink:href="#ZN6W83x0IkivuljJpcN0_pad-14" x="165100" y="-54610"/><use xlink:href="#ZN6W83x0IkivuljJpcN0_pad-14" x="162560" y="-54610"/><use xlink:href="#ZN6W83x0IkivuljJpcN0_pad-14" x="160020" y="-54610"/><use xlink:href="#ZN6W83x0IkivuljJpcN0_pad-14" x="157480" y="-54610"/><use xlink:href="#ZN6W83x0IkivuljJpcN0_pad-14" x="154940" y="-54610"/><use xlink:href="#ZN6W83x0IkivuljJpcN0_pad-14" x="152400" y="-54610"/><use xlink:href="#ZN6W83x0IkivuljJpcN0_pad-14" x="149860" y="-54610"/><use xlink:href="#ZN6W83x0IkivuljJpcN0_pad-14" x="147320" y="-54610"/><use xlink:href="#ZN6W83x0IkivuljJpcN0_pad-14" x="144780" y="-54610"/><use xlink:href="#ZN6W83x0IkivuljJpcN0_pad-14" x="142240" y="-54610"/><use xlink:href="#ZN6W83x0IkivuljJpcN0_pad-14" x="139700" y="-54610"/><use xlink:href="#ZN6W83x0IkivuljJpcN0_pad-14" x="137160" y="-54610"/><use xlink:href="#ZN6W83x0IkivuljJpcN0_pad-14" x="134620" y="-54610"/><use xlink:href="#ZN6W83x0IkivuljJpcN0_pad-14" x="132080" y="-54610"/><use xlink:href="#ZN6W83x0IkivuljJpcN0_pad-14" x="167640" y="-52070"/><use xlink:href="#ZN6W83x0IkivuljJpcN0_pad-14" x="165100" y="-52070"/><use xlink:href="#ZN6W83x0IkivuljJpcN0_pad-14" x="162560" y="-52070"/><use xlink:href="#ZN6W83x0IkivuljJpcN0_pad-14" x="160020" y="-52070"/><use xlink:href="#ZN6W83x0IkivuljJpcN0_pad-14" x="157480" y="-52070"/><use xlink:href="#ZN6W83x0IkivuljJpcN0_pad-14" x="154940" y="-52070"/><use xlink:href="#ZN6W83x0IkivuljJpcN0_pad-14" x="152400" y="-52070"/><use xlink:href="#ZN6W83x0IkivuljJpcN0_pad-14" x="149860" y="-52070"/><use xlink:href="#ZN6W83x0IkivuljJpcN0_pad-14" x="147320" y="-52070"/><use xlink:href="#ZN6W83x0IkivuljJpcN0_pad-14" x="144780" y="-52070"/><use xlink:href="#ZN6W83x0IkivuljJpcN0_pad-14" x="142240" y="-52070"/><use xlink:href="#ZN6W83x0IkivuljJpcN0_pad-14" x="139700" y="-52070"/><use xlink:href="#ZN6W83x0IkivuljJpcN0_pad-14" x="137160" y="-52070"/><use xlink:href="#ZN6W83x0IkivuljJpcN0_pad-14" x="134620" y="-52070"/><use xlink:href="#ZN6W83x0IkivuljJpcN0_pad-14" x="132080" y="-52070"/><use xlink:href="#ZN6W83x0IkivuljJpcN0_pad-14" x="167640" y="-49530"/><use xlink:href="#ZN6W83x0IkivuljJpcN0_pad-14" x="165100" y="-49530"/><use xlink:href="#ZN6W83x0IkivuljJpcN0_pad-14" x="162560" y="-49530"/><use xlink:href="#ZN6W83x0IkivuljJpcN0_pad-14" x="160020" y="-49530"/><use xlink:href="#ZN6W83x0IkivuljJpcN0_pad-14" x="157480" y="-49530"/><use xlink:href="#ZN6W83x0IkivuljJpcN0_pad-14" x="154940" y="-49530"/><use xlink:href="#ZN6W83x0IkivuljJpcN0_pad-14" x="152400" y="-49530"/><use xlink:href="#ZN6W83x0IkivuljJpcN0_pad-14" x="149860" y="-49530"/><use xlink:href="#ZN6W83x0IkivuljJpcN0_pad-14" x="147320" y="-49530"/><use xlink:href="#ZN6W83x0IkivuljJpcN0_pad-14" x="144780" y="-49530"/><use xlink:href="#ZN6W83x0IkivuljJpcN0_pad-14" x="142240" y="-49530"/><use xlink:href="#ZN6W83x0IkivuljJpcN0_pad-14" x="139700" y="-49530"/><use xlink:href="#ZN6W83x0IkivuljJpcN0_pad-14" x="137160" y="-49530"/><use xlink:href="#ZN6W83x0IkivuljJpcN0_pad-14" x="134620" y="-49530"/><use xlink:href="#ZN6W83x0IkivuljJpcN0_pad-14" x="132080" y="-49530"/><use xlink:href="#ZN6W83x0IkivuljJpcN0_pad-14" x="167640" y="-46990"/><use xlink:href="#ZN6W83x0IkivuljJpcN0_pad-14" x="165100" y="-46990"/><use xlink:href="#ZN6W83x0IkivuljJpcN0_pad-14" x="162560" y="-46990"/><use xlink:href="#ZN6W83x0IkivuljJpcN0_pad-14" x="160020" y="-46990"/><use xlink:href="#ZN6W83x0IkivuljJpcN0_pad-14" x="157480" y="-46990"/><use xlink:href="#ZN6W83x0IkivuljJpcN0_pad-14" x="154940" y="-46990"/><use xlink:href="#ZN6W83x0IkivuljJpcN0_pad-14" x="152400" y="-46990"/><use xlink:href="#ZN6W83x0IkivuljJpcN0_pad-14" x="149860" y="-46990"/><use xlink:href="#ZN6W83x0IkivuljJpcN0_pad-14" x="147320" y="-46990"/><use xlink:href="#ZN6W83x0IkivuljJpcN0_pad-14" x="144780" y="-46990"/><use xlink:href="#ZN6W83x0IkivuljJpcN0_pad-14" x="142240" y="-46990"/><use xlink:href="#ZN6W83x0IkivuljJpcN0_pad-14" x="139700" y="-46990"/><use xlink:href="#ZN6W83x0IkivuljJpcN0_pad-14" x="137160" y="-46990"/><use xlink:href="#ZN6W83x0IkivuljJpcN0_pad-14" x="134620" y="-46990"/><use xlink:href="#ZN6W83x0IkivuljJpcN0_pad-14" x="132080" y="-46990"/><use xlink:href="#ZN6W83x0IkivuljJpcN0_pad-15" x="161290" y="-38354"/><use xlink:href="#ZN6W83x0IkivuljJpcN0_pad-16" x="166370" y="-38354"/><use xlink:href="#ZN6W83x0IkivuljJpcN0_pad-11" x="166878" y="-112014"/><use xlink:href="#ZN6W83x0IkivuljJpcN0_pad-10" x="166878" y="-114554"/><use xlink:href="#ZN6W83x0IkivuljJpcN0_pad-10" x="166878" y="-117094"/><use xlink:href="#ZN6W83x0IkivuljJpcN0_pad-10" x="166878" y="-119634"/><use xlink:href="#ZN6W83x0IkivuljJpcN0_pad-10" x="166878" y="-122174"/><use xlink:href="#ZN6W83x0IkivuljJpcN0_pad-10" x="166878" y="-124714"/><use xlink:href="#ZN6W83x0IkivuljJpcN0_pad-10" x="166878" y="-127254"/><use xlink:href="#ZN6W83x0IkivuljJpcN0_pad-10" x="166878" y="-129794"/><use xlink:href="#ZN6W83x0IkivuljJpcN0_pad-10" x="166878" y="-132334"/><use xlink:href="#ZN6W83x0IkivuljJpcN0_pad-10" x="166878" y="-134874"/><use xlink:href="#ZN6W83x0IkivuljJpcN0_pad-10" x="167132" y="-107950"/><use xlink:href="#ZN6W83x0IkivuljJpcN0_pad-10" x="167132" y="-105410"/><use xlink:href="#ZN6W83x0IkivuljJpcN0_pad-10" x="167132" y="-102870"/><use xlink:href="#ZN6W83x0IkivuljJpcN0_pad-10" x="167132" y="-100330"/><use xlink:href="#ZN6W83x0IkivuljJpcN0_pad-10" x="167132" y="-97790"/><use xlink:href="#ZN6W83x0IkivuljJpcN0_pad-10" x="167132" y="-95250"/><use xlink:href="#ZN6W83x0IkivuljJpcN0_pad-10" x="167132" y="-92710"/><use xlink:href="#ZN6W83x0IkivuljJpcN0_pad-10" x="167132" y="-90170"/><use xlink:href="#ZN6W83x0IkivuljJpcN0_pad-10" x="167132" y="-87630"/><use xlink:href="#ZN6W83x0IkivuljJpcN0_pad-11" x="167132" y="-85090"/><use xlink:href="#ZN6W83x0IkivuljJpcN0_pad-11" x="132588" y="-111760"/><use xlink:href="#ZN6W83x0IkivuljJpcN0_pad-10" x="132588" y="-114300"/><use xlink:href="#ZN6W83x0IkivuljJpcN0_pad-10" x="132588" y="-116840"/><use xlink:href="#ZN6W83x0IkivuljJpcN0_pad-10" x="132588" y="-119380"/><use xlink:href="#ZN6W83x0IkivuljJpcN0_pad-10" x="132588" y="-121920"/><use xlink:href="#ZN6W83x0IkivuljJpcN0_pad-10" x="132588" y="-124460"/><use xlink:href="#ZN6W83x0IkivuljJpcN0_pad-10" x="132588" y="-127000"/><use xlink:href="#ZN6W83x0IkivuljJpcN0_pad-10" x="132588" y="-129540"/><use xlink:href="#ZN6W83x0IkivuljJpcN0_pad-10" x="132588" y="-132080"/><use xlink:href="#ZN6W83x0IkivuljJpcN0_pad-10" x="132588" y="-134620"/><use xlink:href="#ZN6W83x0IkivuljJpcN0_pad-10" x="132588" y="-107442"/><use xlink:href="#ZN6W83x0IkivuljJpcN0_pad-10" x="132588" y="-104902"/><use xlink:href="#ZN6W83x0IkivuljJpcN0_pad-10" x="132588" y="-102362"/><use xlink:href="#ZN6W83x0IkivuljJpcN0_pad-10" x="132588" y="-99822"/><use xlink:href="#ZN6W83x0IkivuljJpcN0_pad-10" x="132588" y="-97282"/><use xlink:href="#ZN6W83x0IkivuljJpcN0_pad-10" x="132588" y="-94742"/><use xlink:href="#ZN6W83x0IkivuljJpcN0_pad-10" x="132588" y="-92202"/><use xlink:href="#ZN6W83x0IkivuljJpcN0_pad-10" x="132588" y="-89662"/><use xlink:href="#ZN6W83x0IkivuljJpcN0_pad-10" x="132588" y="-87122"/><use xlink:href="#ZN6W83x0IkivuljJpcN0_pad-11" x="132588" y="-84582"/><use xlink:href="#ZN6W83x0IkivuljJpcN0_pad-15" x="123444" y="-133604"/><use xlink:href="#ZN6W83x0IkivuljJpcN0_pad-16" x="123444" y="-128524"/><use xlink:href="#ZN6W83x0IkivuljJpcN0_pad-16" x="123444" y="-123444"/><use xlink:href="#ZN6W83x0IkivuljJpcN0_pad-16" x="123444" y="-118364"/><use xlink:href="#ZN6W83x0IkivuljJpcN0_pad-16" x="123444" y="-113284"/><use xlink:href="#ZN6W83x0IkivuljJpcN0_pad-16" x="123444" y="-108204"/><use xlink:href="#ZN6W83x0IkivuljJpcN0_pad-16" x="123444" y="-103124"/><use xlink:href="#ZN6W83x0IkivuljJpcN0_pad-16" x="123444" y="-98044"/><use xlink:href="#ZN6W83x0IkivuljJpcN0_pad-16" x="123444" y="-92964"/><use xlink:href="#ZN6W83x0IkivuljJpcN0_pad-16" x="123444" y="-87884"/><use xlink:href="#ZN6W83x0IkivuljJpcN0_pad-16" x="123444" y="-35052"/><use xlink:href="#ZN6W83x0IkivuljJpcN0_pad-16" x="123444" y="-40132"/><use xlink:href="#ZN6W83x0IkivuljJpcN0_pad-16" x="123444" y="-45212"/><use xlink:href="#ZN6W83x0IkivuljJpcN0_pad-16" x="123444" y="-50292"/><use xlink:href="#ZN6W83x0IkivuljJpcN0_pad-16" x="123444" y="-55372"/><use xlink:href="#ZN6W83x0IkivuljJpcN0_pad-16" x="123444" y="-60452"/><use xlink:href="#ZN6W83x0IkivuljJpcN0_pad-16" x="123444" y="-65532"/><use xlink:href="#ZN6W83x0IkivuljJpcN0_pad-16" x="123444" y="-70612"/><use xlink:href="#ZN6W83x0IkivuljJpcN0_pad-16" x="123444" y="-75692"/><use xlink:href="#ZN6W83x0IkivuljJpcN0_pad-15" x="123444" y="-80772"/><use xlink:href="#ZN6W83x0IkivuljJpcN0_pad-15" x="176276" y="-87884"/><use xlink:href="#ZN6W83x0IkivuljJpcN0_pad-16" x="176276" y="-92964"/><use xlink:href="#ZN6W83x0IkivuljJpcN0_pad-16" x="176276" y="-98044"/><use xlink:href="#ZN6W83x0IkivuljJpcN0_pad-16" x="176276" y="-103124"/><use xlink:href="#ZN6W83x0IkivuljJpcN0_pad-16" x="176276" y="-108204"/><use xlink:href="#ZN6W83x0IkivuljJpcN0_pad-16" x="176276" y="-113284"/><use xlink:href="#ZN6W83x0IkivuljJpcN0_pad-16" x="176276" y="-118364"/><use xlink:href="#ZN6W83x0IkivuljJpcN0_pad-16" x="176276" y="-123444"/><use xlink:href="#ZN6W83x0IkivuljJpcN0_pad-16" x="176276" y="-128524"/><use xlink:href="#ZN6W83x0IkivuljJpcN0_pad-16" x="176276" y="-133604"/><use xlink:href="#ZN6W83x0IkivuljJpcN0_pad-16" x="176276" y="-81026"/><use xlink:href="#ZN6W83x0IkivuljJpcN0_pad-16" x="176276" y="-75946"/><use xlink:href="#ZN6W83x0IkivuljJpcN0_pad-16" x="176276" y="-70866"/><use xlink:href="#ZN6W83x0IkivuljJpcN0_pad-16" x="176276" y="-65786"/><use xlink:href="#ZN6W83x0IkivuljJpcN0_pad-16" x="176276" y="-60706"/><use xlink:href="#ZN6W83x0IkivuljJpcN0_pad-16" x="176276" y="-55626"/><use xlink:href="#ZN6W83x0IkivuljJpcN0_pad-16" x="176276" y="-50546"/><use xlink:href="#ZN6W83x0IkivuljJpcN0_pad-16" x="176276" y="-45466"/><use xlink:href="#ZN6W83x0IkivuljJpcN0_pad-16" x="176276" y="-40386"/><use xlink:href="#ZN6W83x0IkivuljJpcN0_pad-15" x="176276" y="-35306"/></g></svg>